# Blender 4.0.1
# www.blender.org
mtllib shard20.mtl
o shard20
v 0.346386 0.299230 0.150034
v 0.399478 0.178804 0.160066
v 0.427886 -0.040632 -0.052278
v 0.310987 -0.063240 -0.320039
v 0.251239 0.113098 -0.177976
v 0.149593 0.474641 0.093271
v 0.188143 0.363934 0.060306
v 0.124180 0.605995 0.228050
v 0.228268 0.519492 0.260687
v 0.307875 0.418475 0.299667
v 0.268406 0.512901 0.221974
v 0.183821 0.637852 0.113204
v 0.454616 0.063624 0.084311
v 0.347015 0.169708 -0.134368
v 0.368801 0.277855 -0.078011
v 0.237644 0.267945 -0.026300
v 0.308494 0.359059 -0.171608
v 0.290838 0.099553 -0.388718
v 0.232051 0.298051 -0.367268
v 0.188578 0.523124 -0.309353
v 0.116082 0.630266 -0.028979
v 0.092431 0.641701 0.074448
v 0.169705 0.620459 -0.040586
v 0.147491 0.613225 -0.162178
v 0.103305 0.650000 0.030044
v 0.192076 0.593037 -0.261973
v 0.170082 0.608084 -0.123156
v 0.251394 0.529160 -0.195225
v 0.120000 0.653364 0.050000
v 0.103307 0.650003 0.030035
v 0.129045 0.647178 0.125512
v 0.103314 0.650012 0.030000
v 0.155365 0.587559 -0.287364
v 0.103308 0.650005 0.030030
v 0.189577 0.656790 0.000298
v 0.147733 0.661953 0.105962
v 0.176914 0.670986 0.049592
v 0.110000 0.650883 0.040000
v 0.154730 0.550060 -0.421945
v 0.189780 0.618766 -0.178466
v 0.109044 0.651440 0.000414
v 0.106574 0.643288 0.179920
v 0.176542 0.572730 -0.332691
v 0.204096 0.624474 -0.050642
v 0.355133 0.291582 0.106025
vn -0.9153 -0.3828 0.1251
vn -0.1675 0.2856 0.9436
vn -0.4596 0.3028 0.8349
vn 0.8054 0.5591 0.1969
vn 0.7196 0.6446 0.2582
vn -0.5917 0.6469 0.4810
vn -0.2176 0.9727 0.0804
vn 0.6398 0.7677 0.0366
vn 0.9394 0.1396 -0.3130
vn 0.7335 -0.4646 0.4961
vn 0.4285 -0.8934 0.1350
vn 0.0181 -0.8987 -0.4383
vn 0.9719 0.2025 -0.1199
vn 0.9140 0.3035 -0.2692
vn 0.1263 -0.1752 -0.9764
vn -0.9039 0.4277 0.0095
vn -0.8827 -0.4332 0.1823
vn -0.2834 0.0789 -0.9558
vn 0.8460 0.4937 -0.2015
vn -0.1802 -0.2300 -0.9564
vn -0.9672 -0.1369 -0.2141
vn -0.5217 0.8416 -0.1399
vn -0.9742 0.0361 -0.2230
vn -0.7830 0.3963 -0.4795
vn -0.7478 0.4776 -0.4612
vn -0.0437 0.9275 -0.3713
vn 0.5452 0.7918 -0.2755
vn 0.5616 0.7648 -0.3156
vn -0.3851 0.9066 0.1725
vn -0.9792 -0.0398 -0.1988
vn -0.0181 0.9987 -0.0482
vn -0.0094 0.9991 -0.0403
vn -0.3277 0.9376 0.1161
vn -0.4151 0.8877 0.1993
vn -0.9792 -0.0413 -0.1988
vn 0.3706 0.9155 -0.1564
vn -0.2958 0.9519 0.0806
vn -0.2931 0.9494 0.1129
vn -0.2923 0.9506 0.1042
vn -0.4219 0.8822 0.2090
vn -0.4220 0.8823 0.2085
vn -0.4264 0.8802 0.2083
vn -0.3108 0.9356 0.1675
vn -0.3082 0.9400 0.1460
vn -0.3013 0.9461 0.1191
vn -0.1782 -0.0958 -0.9793
vn -0.8338 0.5179 -0.1912
vn 0.6659 0.6686 -0.3309
vn 0.5298 0.8418 -0.1035
vn -0.3013 0.9461 0.1189
vn -0.2725 0.9621 -0.0063
vn 0.4277 -0.8793 -0.2096
vn 0.4281 -0.8790 -0.2100
vn -0.2949 0.9538 0.0582
vn 0.9324 0.3605 -0.0279
vn 0.3707 -0.2259 0.9009
vn 0.3967 -0.3955 0.8284
vn 0.2521 -0.1225 0.9599
vn -0.9591 -0.2628 0.1049
vn -0.8081 -0.5595 0.1845
vt 0.501238 0.448426
vt 0.486898 0.465401
vt 0.478331 0.445379
vt 0.439813 0.457177
vt 0.452756 0.469592
vt 0.449682 0.476480
vt 0.426244 0.468169
vt 0.431220 0.456985
vt 0.422774 0.464298
vt 0.416021 0.470490
vt 0.500027 0.565410
vt 0.485035 0.536503
vt 0.474378 0.550040
vt 0.479317 0.594506
vt 0.516645 0.555226
vt 0.529216 0.568487
vt 0.498597 0.601880
vt 0.450541 0.423362
vt 0.436891 0.479556
vt 0.453316 0.446463
vt 0.472414 0.428458
vt 0.523607 0.602030
vt 0.394533 0.479464
vt 0.556063 0.574176
vt 0.389304 0.506153
vt 0.396935 0.446309
vt 0.556629 0.591644
vt 0.418394 0.429374
vt 0.465613 0.423083
vt 0.598963 0.609695
vt 0.586712 0.599830
vt 0.614542 0.603214
vt 0.443956 0.422281
vt 0.436031 0.425340
vt 0.554185 0.606166
vt 0.563503 0.604114
vt 0.550151 0.620431
vt 0.562236 0.627123
vt 0.565959 0.584095
vt 0.571498 0.602395
vt 0.443954 0.422281
vt 0.516409 0.614807
vt 0.527677 0.621964
vt 0.577245 0.607203
vt 0.571496 0.602395
vt 0.443950 0.422280
vt 0.511235 0.627288
vt 0.574247 0.624194
vt 0.571494 0.602396
vt 0.571486 0.602397
vt 0.440242 0.422592
vt 0.382170 0.440129
vt 0.401843 0.433982
vt 0.488897 0.627205
vt 0.467050 0.623264
vt 0.480409 0.617250
vt 0.547852 0.630251
vt 0.574365 0.604323
vt 0.593285 0.614885
vt 0.760126 0.672836
vt 0.754805 0.678203
vt 0.757991 0.675568
vt 0.441504 0.617230
vt 0.664901 0.797935
vt 0.667784 0.800816
vt 0.664901 0.800816
vt 0.564154 0.593513
vt 0.563068 0.605454
vt 0.468935 0.441150
vt 0.450000 0.470839
vt 0.452979 0.421035
vt 0.477940 0.455185
vt 0.449875 0.510344
vt 0.430566 0.495216
vt 0.428257 0.474495
vt 0.417662 0.466027
vt 0.431092 0.423082
vt 0.411150 0.440295
vt 0.403828 0.426083
vt 0.414174 0.423465
vt 0.437558 0.419045
vt 0.442602 0.416854
vt 0.462374 0.473418
vt 0.462670 0.494041
vt 0.535194 0.490843
vt 0.573110 0.489793
vt 0.556460 0.499215
vt 0.566605 0.453328
vt 0.590743 0.459774
vt 0.541359 0.455653
vt 0.520543 0.480503
vt 0.517985 0.454513
vt 0.493617 0.482020
vt 0.465077 0.486324
vt 0.448662 0.461324
vt 0.418634 0.500634
vt 0.401588 0.524282
s 1
usemtl lambert3
f 6/1/1 9/2/2 8/3/3
f 8/4/3 9/5/2 11/6/4
f 8/4/3 11/6/4 12/7/5
f 12/7/5 42/8/6 8/4/3
f 12/7/5 36/9/7 42/8/6
f 12/7/5 37/10/8 36/9/7
f 14/11/9 13/12/10 3/13/11
f 14/11/9 3/13/11 4/14/12
f 15/15/13 14/11/9 17/16/14
f 14/11/9 18/17/15 17/16/14
f 22/18/16 16/19/17 6/20/1
f 8/21/3 22/18/16 6/20/1
f 18/17/15 19/22/18 17/16/14
f 19/23/18 16/19/17 22/18/16
f 17/16/14 19/22/18 28/24/19
f 19/23/18 18/25/15 16/19/17
f 20/26/20 19/23/18 22/18/16
f 18/17/15 14/11/9 4/14/12
f 28/24/19 19/22/18 20/27/20
f 24/28/21 20/26/20 22/18/16
f 8/21/3 42/29/6 22/18/16
f 31/30/22 22/31/16 42/32/6
f 22/18/16 25/33/23 21/34/24
f 21/35/24 41/36/25 23/37/26
f 23/37/26 41/36/25 35/38/27
f 21/34/24 24/28/21 22/18/16
f 26/39/28 28/24/19 20/27/20
f 25/40/29 22/31/16 31/30/22
f 25/33/23 30/41/30 21/34/24
f 24/42/31 21/35/24 23/37/26
f 27/43/32 24/42/31 23/37/26
f 25/40/29 31/30/22 29/44/33
f 30/45/34 25/40/29 29/44/33
f 30/41/30 32/46/35 21/34/24
f 24/42/31 27/43/32 40/47/36
f 29/44/37 31/30/38 37/48/39
f 34/49/40 30/45/41 29/44/42
f 32/50/43 30/45/44 37/48/45
f 32/46/35 41/51/25 21/34/24
f 39/52/46 20/26/20 33/53/47
f 26/54/28 43/55/48 33/56/47
f 40/47/36 27/43/32 44/57/49
f 30/45/44 38/58/50 37/48/45
f 41/36/51 32/50/51 37/48/51
f 42/32/6 36/59/7 31/30/22
f 37/48/8 31/30/22 36/59/7
f 30/60/52 29/61/53 38/62/53
f 40/47/36 26/54/28 24/42/31
f 43/55/48 39/63/46 33/56/47
f 24/28/21 33/53/47 20/26/20
f 38/64/54 29/65/37 37/66/39
f 35/38/27 44/57/49 23/37/26
f 26/54/28 33/56/47 24/42/31
f 44/57/49 27/43/32 23/37/26
f 35/38/27 41/36/25 37/48/8
f 43/67/48 26/39/28 20/27/20
f 39/68/46 43/67/48 20/27/20
f 11/69/4 45/70/55 12/71/5
f 10/72/56 45/70/55 11/69/4
f 13/73/10 14/74/9 45/70/55
f 15/75/13 45/70/55 14/74/9
f 15/75/13 17/76/14 45/70/55
f 44/77/49 17/76/14 28/78/19
f 44/77/49 28/78/19 26/79/28
f 44/77/49 26/79/28 40/80/36
f 35/81/27 12/71/5 44/77/49
f 37/82/8 12/71/5 35/81/27
f 45/70/55 17/76/14 12/71/5
f 45/70/55 1/83/57 2/84/58
f 17/76/14 44/77/49 12/71/5
f 2/85/58 3/86/11 13/87/10
f 5/88/59 4/89/12 3/86/11
f 3/86/11 2/85/58 5/88/59
f 2/85/58 16/90/17 5/88/59
f 2/85/58 1/91/57 16/90/17
f 1/91/57 7/92/60 16/90/17
f 1/91/57 10/93/56 7/92/60
f 10/93/56 6/1/1 7/92/60
f 9/2/2 6/1/1 10/93/56
f 10/94/56 11/6/4 9/5/2
f 7/95/60 6/20/1 16/19/17
f 5/96/59 16/19/17 18/25/15
f 4/97/12 5/96/59 18/25/15
f 45/70/55 10/72/56 1/83/57
f 2/84/58 13/73/10 45/70/55
