# Blender 4.0.1
# www.blender.org
mtllib shard12.mtl
o shard12
v -0.516268 0.309725 -0.001538
v -0.442904 -0.543258 -0.458882
v -0.488114 -0.107098 -0.226841
v -0.510407 0.515458 0.146063
v -0.083891 -0.077095 0.045920
v -0.274859 -0.239900 -0.683792
v -0.319256 0.439014 -0.686102
v -0.584839 0.419854 -0.078329
v -0.145272 -0.154744 -0.713476
v -0.238310 0.227320 -0.586025
v -0.433046 0.544348 -0.367963
v -0.319272 -0.412692 -0.810462
v -0.303102 0.030692 -0.802983
v -0.396902 -0.192662 -0.775528
v -0.644182 -0.229074 -0.454938
v -0.471817 0.161833 -0.688477
v -0.666708 0.255144 -0.203790
v -0.663537 0.029155 -0.482732
v -0.587845 0.055262 -0.250060
v -0.047542 -0.025886 -0.361701
vn -0.5996 -0.3935 0.6968
vn 0.5858 -0.2635 0.7664
vn -0.6696 -0.3790 0.6387
vn -0.1980 0.5694 0.7978
vn -0.0231 0.9837 -0.1785
vn -0.9210 0.3442 0.1828
vn 0.6652 -0.2703 -0.6960
vn 0.9988 0.0311 -0.0373
vn -0.1491 -0.9787 0.1412
vn 0.2960 0.2744 -0.9149
vn 0.5684 -0.4180 -0.7087
vn 0.3465 -0.5179 -0.7822
vn 0.6956 0.0698 -0.7151
vn 0.2012 0.6426 -0.7393
vn -0.5061 0.3390 -0.7931
vn -0.9827 0.0636 0.1739
vn -0.2582 -0.0888 -0.9620
vn -0.9386 -0.3443 0.0232
vn -0.9614 0.0776 -0.2641
vn -0.7954 -0.3410 0.5010
vt 0.541133 0.520354
vt 0.479090 0.504335
vt 0.545229 0.458524
vt 0.535211 0.424651
vt 0.547310 0.434304
vt 0.557221 0.428951
vt 0.582556 0.430933
vt 0.405256 0.485394
vt 0.442354 0.494024
vt 0.418755 0.411732
vt 0.626346 0.491290
vt 0.571642 0.480037
vt 0.612081 0.470277
vt 0.386797 0.458870
vt 0.382321 0.436628
vt 0.611650 0.507111
vt 0.925941 0.228708
vt 0.935475 0.157241
vt 0.899628 0.199971
vt 0.937889 0.045669
vt 0.922743 0.103096
vt 0.962957 0.079181
vt 0.070664 0.269410
vt 0.016495 0.228453
vt 0.047762 0.281942
vt 0.016991 0.369246
vt 0.095396 0.324739
vt 0.163196 0.584682
vt 0.176896 0.628000
vt 0.141936 0.615307
vt 0.134287 0.651893
vt 0.160333 0.657904
vt 0.135908 0.658193
vt 0.288800 0.656365
vt 0.281345 0.652168
vt 0.292232 0.640793
vt 0.042475 0.427669
vt 0.273815 0.479050
vt 0.318925 0.395763
vt 0.221931 0.394455
vt 0.993040 0.081786
vt 0.977525 0.058585
vt 0.153761 0.392290
vt 0.959964 0.217099
vt 0.968102 0.119573
vt 0.975292 0.233384
vt 0.944883 0.274361
vt 0.980452 0.188554
vt 0.213033 0.483076
vt 0.148359 0.381938
vt 0.143073 0.351122
vt 0.156969 0.354822
vt 0.068813 0.541036
vt 0.062885 0.559092
vt 0.043462 0.497734
vt 0.529604 0.449265
vt 0.538060 0.539615
vt 0.586657 0.479359
vt 0.577295 0.495849
vt 0.483331 0.534892
vt 0.481293 0.440098
vt 0.539095 0.589227
vt 0.564600 0.551885
vt 0.553480 0.497704
vt 0.564006 0.473368
vt 0.496865 0.481488
vt 0.081857 0.286116
vt 0.050148 0.285449
s 1
usemtl lambert3
f 3/1/1 5/2/2 1/3/3
f 1/3/3 5/2/2 4/4/4
f 11/5/5 8/6/6 4/7/4
f 9/8/7 20/9/8 2/10/9
f 13/11/10 20/12/8 9/13/7
f 6/14/11 9/8/7 2/10/9
f 12/15/12 6/14/11 2/10/9
f 20/12/8 13/11/10 10/16/13
f 6/17/11 13/18/10 9/19/7
f 7/20/14 10/21/13 16/22/15
f 1/23/3 4/24/4 8/25/6
f 11/26/5 17/27/16 8/25/6
f 16/28/15 10/29/13 13/30/10
f 12/31/12 14/32/17 6/33/11
f 6/34/11 14/35/17 13/36/10
f 7/37/14 17/27/16 11/26/5
f 12/38/12 2/39/9 15/40/18
f 16/22/15 18/41/19 7/42/14
f 7/37/14 18/43/19 17/27/16
f 14/44/17 16/45/15 13/18/10
f 15/46/18 14/44/17 12/47/12
f 16/45/15 14/44/17 18/48/19
f 14/49/17 15/40/18 18/43/19
f 18/50/19 19/51/20 17/27/16
f 18/43/19 15/40/18 19/52/20
f 3/53/1 19/54/20 15/55/18
f 11/56/5 20/57/8 7/58/14
f 20/57/8 10/59/13 7/58/14
f 5/60/2 20/57/8 11/56/5
f 5/60/2 11/56/5 4/61/4
f 2/62/9 5/2/2 3/1/1
f 15/63/18 2/62/9 3/1/1
f 19/64/20 3/1/1 1/3/3
f 17/65/16 19/64/20 1/3/3
f 2/10/9 20/9/8 5/66/2
f 17/27/16 1/67/3 8/68/6
