# Blender 4.0.1
# www.blender.org
mtllib shard22.mtl
o shard22
v 0.417953 0.125095 0.274080
v 0.337310 0.286003 0.244173
v 0.512123 -0.032241 0.240378
v 0.513730 -0.010463 0.457387
v 0.370217 0.264064 0.080054
v 0.192940 0.598092 0.080043
v 0.185009 0.670471 0.033058
v 0.199591 0.625922 -0.041704
v 0.204714 0.623401 -0.081767
v 0.192085 0.593319 -0.262763
v 0.189777 0.618036 -0.181158
v 0.250768 0.530095 -0.195514
v 0.294873 0.391059 -0.161688
v 0.354084 0.309489 -0.114188
v 0.390047 0.126903 -0.058059
v 0.565211 -0.212689 0.164016
v 0.495934 0.036990 0.503174
v 0.383344 0.239198 0.552984
v 0.365101 0.312092 0.457875
v 0.305521 0.426436 0.293599
v 0.267700 0.514391 0.217155
v 0.184068 0.637558 0.113462
v 0.566239 0.184844 0.364886
v 0.555132 0.242581 0.347644
v 0.333997 0.519627 0.022377
v 0.239020 0.622609 0.081548
v 0.546133 0.072253 0.437567
v 0.421407 0.358316 0.140219
v 0.393554 0.337720 0.329790
v 0.592039 0.109846 0.378375
v 0.529848 0.043678 0.439880
v 0.540673 -0.030012 0.357231
v 0.571907 0.026326 0.360032
v 0.213967 0.669787 0.000483
v 0.429986 0.407968 0.171984
v 0.583672 -0.098772 0.261181
v 0.429973 0.407994 0.171969
v 0.520412 0.036629 0.475173
v 0.274009 0.651071 -0.054295
v 0.429967 0.408007 0.171962
v 0.230043 0.622978 -0.182372
v 0.245932 0.634482 -0.070928
v 0.429952 0.408037 0.171944
v 0.443318 0.252950 0.468425
v 0.552988 -0.124005 0.311956
v 0.558294 -0.142809 0.277781
v 0.575964 -0.203900 0.215377
v 0.446845 0.370724 0.195345
v 0.409563 0.451530 0.145637
v 0.443462 0.104805 0.067100
v 0.550475 -0.073815 0.339416
v 0.589693 -0.061479 0.292934
v 0.517449 -0.019013 0.426925
v 0.301240 0.643917 -0.090300
v 0.597727 0.021307 0.329791
v 0.476059 -0.014914 0.093832
v 0.261609 0.640791 -0.138483
vn -0.9522 0.2944 -0.0820
vn -0.0557 -0.4764 -0.8775
vn -0.9323 -0.3599 0.0359
vn 0.0176 -0.4514 -0.8922
vn -0.8919 -0.4471 0.0682
vn -0.9446 -0.3282 -0.0071
vn -0.8876 -0.4482 0.1059
vn 0.1034 -0.8774 0.4685
vn -0.5258 0.6085 0.5943
vn -0.9186 -0.3953 -0.0015
vn -0.0643 -0.7126 -0.6986
vn 0.1108 -0.4971 -0.8606
vn -0.3664 0.1623 0.9162
vn -0.0643 -0.4265 0.9022
vn 0.8927 -0.3736 0.2520
vn 0.9499 0.1548 0.2716
vn 0.7929 -0.0195 0.6090
vn 0.9463 0.2830 0.1560
vn 0.6855 0.6974 -0.2091
vn 0.7214 0.5802 0.3782
vn 0.8685 0.4934 -0.0473
vn 0.8479 -0.0871 0.5230
vn 0.8137 -0.3048 0.4949
vn 0.7053 -0.3835 0.5962
vn 0.7511 -0.4408 0.4914
vn 0.7235 -0.4280 0.5416
vn 0.1922 0.9798 -0.0549
vn -0.0071 0.9871 -0.1602
vn 0.9912 -0.0923 0.0951
vn -0.8945 0.3189 -0.3133
vn 0.8768 0.1427 -0.4592
vn 0.8802 0.1868 -0.4364
vn 0.9275 0.1645 -0.3356
vn -0.6073 -0.7730 0.1833
vn 0.9061 -0.2498 0.3414
vn 0.9213 -0.1930 0.3375
vn 0.8767 -0.0973 0.4712
vn 0.7694 -0.2765 0.5758
vn 0.8353 -0.2311 0.4988
vn -0.0721 -0.8191 0.5691
vn -0.2791 0.9486 -0.1490
vn 0.2767 0.8559 -0.4369
vn 0.8678 0.1522 -0.4731
vn 0.6950 0.5833 0.4203
vn 0.5298 0.7584 0.3796
vn 0.6257 0.6638 0.4097
vn 0.9677 -0.1791 0.1775
vn 0.8307 -0.0399 0.5553
vn 0.8683 0.1511 -0.4725
vn 0.6906 0.5883 0.4207
vn 0.8708 0.4732 0.1332
vn -0.1292 -0.7991 0.5872
vn 0.9945 -0.1040 -0.0100
vn -0.1245 0.9798 -0.1564
vn -0.9024 0.4303 -0.0238
vn 0.8756 0.1437 -0.4611
vn 0.6932 0.5856 0.4202
vn 0.6582 0.5717 0.4899
vn 0.6376 0.5060 -0.5809
vn -0.3803 0.9195 -0.0996
vn -0.6038 0.7905 0.1025
vn 0.8310 0.5546 0.0425
vn 0.6960 0.5825 0.4199
vn -0.1169 -0.4582 -0.8811
vn -0.3568 0.0130 -0.9341
vn -0.2102 0.6575 0.7235
vn -0.5927 0.5523 0.5863
vn -0.5094 0.4945 0.7042
vn 0.0890 -0.8470 -0.5240
vn 0.0492 -0.4921 -0.8692
vn 0.2705 -0.9225 0.2752
vt 0.426417 0.423656
vt 0.416033 0.461722
vt 0.450000 0.426055
vt 0.446335 0.503702
vt 0.475000 0.500000
vt 0.475000 0.475000
vt 0.475000 0.525000
vt 0.501339 0.520633
vt 0.502250 0.474154
vt 0.450000 0.475000
vt 0.431247 0.495965
vt 0.424627 0.472341
vt 0.514568 0.481725
vt 0.508918 0.512235
vt 0.550059 0.346163
vt 0.567038 0.328927
vt 0.556762 0.345780
vt 0.482849 0.531489
vt 0.492202 0.534918
vt 0.498350 0.527938
vt 0.405050 0.495620
vt 0.425000 0.475000
vt 0.427120 0.496860
vt 0.476705 0.530490
vt 0.543240 0.324843
vt 0.547954 0.356090
vt 0.527626 0.323499
vt 0.408240 0.489322
vt 0.412484 0.475761
vt 0.542416 0.315447
vt 0.546823 0.651186
vt 0.550921 0.630295
vt 0.563024 0.634150
vt 0.532139 0.520107
vt 0.527285 0.515810
vt 0.525000 0.525000
vt 0.530416 0.341880
vt 0.516169 0.304616
vt 0.515063 0.318264
vt 0.501813 0.311459
vt 0.540961 0.642389
vt 0.523756 0.648170
vt 0.537412 0.631874
vt 0.532143 0.520109
vt 0.532138 0.520107
vt 0.454477 0.508492
vt 0.461002 0.511414
vt 0.307765 0.660431
vt 0.313163 0.665073
vt 0.309488 0.667920
vt 0.537121 0.658979
vt 0.532144 0.520112
vt 0.532142 0.520110
vt 0.454472 0.508490
vt 0.505066 0.522455
vt 0.472584 0.527647
vt 0.495753 0.300850
vt 0.507138 0.295979
vt 0.474782 0.498553
vt 0.500000 0.492218
vt 0.487351 0.491738
vt 0.510118 0.639016
vt 0.511309 0.628027
vt 0.532149 0.520114
vt 0.532144 0.520111
vt 0.454470 0.508488
vt 0.494351 0.504092
vt 0.313364 0.654831
vt 0.415749 0.470830
vt 0.538156 0.525993
vt 0.532148 0.520115
vt 0.454465 0.508485
vt 0.489141 0.521898
vt 0.508324 0.493573
vt 0.491748 0.537027
vt 0.551727 0.541614
vt 0.519792 0.559224
vt 0.445999 0.504147
vt 0.533326 0.351587
vt 0.572445 0.625785
vt 0.501633 0.500268
vt 0.476313 0.533376
vt 0.499845 0.553214
vt 0.485852 0.627782
vt 0.448891 0.476393
vt 0.426150 0.468175
vt 0.465098 0.486096
vt 0.493922 0.490632
vt 0.509635 0.490116
vt 0.480416 0.497383
vt 0.546899 0.365263
vt 0.450027 0.525009
vt 0.463561 0.505923
vt 0.460561 0.509542
vt 0.556208 0.574238
vt 0.535047 0.569068
vt 0.570698 0.555385
vt 0.566127 0.584087
vt 0.568939 0.571856
vt 0.432579 0.422853
vt 0.452895 0.420980
vt 0.442211 0.416989
vt 0.403095 0.426170
vt 0.414349 0.423466
vt 0.411121 0.440093
vt 0.453793 0.522011
vt 0.463669 0.547323
vt 0.471437 0.546292
vt 0.479816 0.538212
vt 0.497750 0.523094
vt 0.484292 0.535593
vt 0.478368 0.454435
vt 0.468371 0.440623
vt 0.477355 0.282891
vt 0.446953 0.517749
vt 0.570617 0.563491
s 1
usemtl lambert3
f 9/1/1 13/2/2 6/3/3
f 50/4/4 1/5/5 2/6/6
f 1/5/5 3/7/7 4/8/8
f 1/5/5 4/8/8 19/9/9
f 2/6/6 1/5/5 19/9/9
f 5/10/10 50/4/4 2/6/6
f 15/11/11 5/10/10 14/12/12
f 18/13/13 4/8/8 17/14/14
f 31/15/15 30/16/16 27/17/17
f 27/18/17 30/19/16 23/20/18
f 54/21/19 26/22/20 25/23/21
f 38/24/22 27/18/17 23/20/18
f 30/16/16 31/15/15 33/25/23
f 38/26/22 31/15/15 27/17/17
f 33/25/24 31/15/25 32/27/26
f 39/28/27 34/29/28 26/22/20
f 33/25/24 55/30/29 30/16/16
f 39/31/27 8/32/30 34/33/28
f 35/34/31 48/35/32 28/36/33
f 31/15/15 38/26/22 53/37/34
f 31/15/35 53/37/36 32/27/37
f 52/38/38 51/39/39 45/40/40
f 42/41/41 57/42/42 9/43/1
f 37/44/43 35/45/31 28/36/33
f 35/46/44 29/5/45 48/47/46
f 52/38/47 32/27/37 51/39/48
f 32/48/26 55/49/29 33/50/24
f 54/21/19 39/28/27 26/22/20
f 42/41/41 39/31/27 54/51/19
f 42/41/41 8/32/30 39/31/27
f 40/52/49 37/53/43 28/36/33
f 37/54/50 29/5/45 35/46/44
f 23/20/18 24/55/51 17/56/14
f 17/56/14 38/24/22 23/20/18
f 46/57/52 36/58/53 45/40/40
f 52/38/47 45/40/40 36/58/53
f 55/59/29 23/60/18 30/61/16
f 41/62/54 11/63/55 9/43/1
f 43/64/56 40/65/49 28/36/33
f 40/66/57 29/5/45 37/54/50
f 44/67/58 17/56/14 24/55/51
f 52/68/47 55/49/29 32/48/37
f 41/62/59 9/43/60 57/42/42
f 34/29/28 7/69/61 26/22/20
f 49/70/62 43/71/56 28/36/33
f 43/72/63 29/5/45 40/66/57
f 29/5/45 24/73/51 48/47/46
f 48/35/32 24/74/51 50/75/4
f 9/43/1 8/32/30 42/41/41
f 25/76/21 49/70/62 14/77/12
f 49/78/62 29/5/45 43/72/63
f 4/79/8 53/37/34 38/26/22
f 32/27/37 53/37/36 51/39/48
f 23/60/18 50/75/4 24/74/51
f 28/36/33 48/35/32 50/75/4
f 28/36/33 14/77/12 49/70/62
f 54/51/19 57/42/42 42/41/41
f 8/32/30 7/80/61 34/33/28
f 29/5/45 44/81/58 24/73/51
f 53/37/34 45/40/40 51/39/39
f 55/59/29 56/82/64 23/60/18
f 56/82/64 50/75/4 23/60/18
f 50/75/4 15/83/11 28/36/33
f 15/83/11 14/77/12 28/36/33
f 41/62/54 10/84/65 11/63/55
f 21/85/66 26/22/20 22/86/67
f 21/85/66 25/23/21 26/22/20
f 21/85/66 49/78/62 25/23/21
f 20/87/68 19/88/9 29/5/45
f 19/88/9 18/89/13 44/81/58
f 17/56/14 44/67/58 18/90/13
f 17/91/14 4/79/8 38/26/22
f 16/92/69 52/93/47 36/94/53
f 16/92/69 55/59/29 52/93/47
f 12/95/70 25/76/21 13/96/2
f 12/95/70 54/97/19 25/76/21
f 12/95/70 10/98/65 41/99/59
f 7/69/61 22/86/67 26/22/20
f 9/1/1 6/3/3 8/100/30
f 6/3/3 22/101/67 7/102/61
f 8/100/30 6/3/3 7/102/61
f 10/103/65 9/1/1 11/104/55
f 9/1/1 10/103/65 12/105/70
f 13/2/2 9/1/1 12/105/70
f 6/3/3 13/2/2 14/12/12
f 5/10/10 6/3/3 14/12/12
f 15/11/11 50/4/4 5/10/10
f 1/5/5 50/4/4 56/106/64
f 3/7/7 1/5/5 56/106/64
f 56/106/64 16/107/69 3/7/7
f 3/7/7 16/107/69 47/108/71
f 47/108/71 46/109/52 3/7/7
f 53/110/34 3/7/7 45/111/40
f 46/109/52 45/111/40 3/7/7
f 4/8/8 3/7/7 53/110/34
f 19/9/9 4/8/8 18/13/13
f 19/9/9 20/112/68 2/6/6
f 20/112/68 5/10/10 2/6/6
f 6/3/3 5/10/10 20/112/68
f 6/3/3 20/112/68 21/113/66
f 21/113/66 22/101/67 6/3/3
f 47/114/71 36/58/53 46/57/52
f 49/78/62 21/85/66 20/87/68
f 49/78/62 20/87/68 29/5/45
f 44/81/58 29/5/45 19/88/9
f 16/92/69 36/94/53 47/115/71
f 16/92/69 56/82/64 55/59/29
f 13/96/2 25/76/21 14/77/12
f 12/95/70 57/116/42 54/97/19
f 12/95/70 41/99/59 57/116/42
