# Blender 4.0.1
# www.blender.org
mtllib shard13.mtl
o shard13
v -0.278622 -0.428146 -0.315390
v -0.182133 -0.293915 -0.285238
v 0.003073 -0.125127 -0.290449
v -0.085683 -0.146248 -0.537037
v -0.043277 -0.348029 0.110264
v 0.160546 -0.141007 0.090801
v 0.074760 -0.160978 -0.082367
v -0.435994 -0.561539 -0.428524
v -0.327089 -0.377016 -0.506403
v -0.434222 -0.660435 -0.082547
v -0.407426 -0.684376 0.045279
v -0.307356 -0.566295 0.061710
v -0.494478 -0.523620 0.377929
v -0.137948 -0.241043 0.320644
v -0.274255 -0.280307 0.425353
v -0.508516 -0.575731 0.178418
v 0.178936 -0.062279 0.195527
v 0.038365 0.145109 0.182601
v -0.090818 -0.075940 0.267739
v -0.231084 -0.166428 0.350118
v -0.269441 -0.270152 -0.093035
v -0.504271 -0.530686 0.328600
v -0.141737 -0.141421 -0.258152
v -0.214226 -0.189547 0.112243
v -0.526613 -0.571597 0.038378
v 0.089496 0.196605 0.074605
v 0.004185 0.028032 -0.186079
v 0.151442 0.030236 0.138897
v -0.038346 0.004097 -0.314204
v -0.058850 -0.074366 -0.431270
v -0.343030 -0.429625 -0.249336
v -0.444109 -0.650546 0.122545
v -0.135925 -0.144423 -0.667175
v -0.476632 -0.610094 -0.222413
v -0.519932 -0.574251 -0.165089
v -0.475518 -0.577489 -0.314949
v -0.378519 -0.381322 0.472272
v 0.018291 -0.130077 0.277355
v -0.350774 -0.486619 0.302995
v -0.151999 -0.442288 0.054695
vn 0.7107 -0.7000 0.0705
vn 0.7341 -0.6449 -0.2127
vn 0.7374 -0.6489 -0.1877
vn 0.6732 -0.7392 0.0214
vn 0.9033 -0.2566 -0.3438
vn 0.8934 -0.3062 -0.3288
vn -0.1847 -0.9439 -0.2737
vn -0.2750 -0.6090 -0.7440
vn -0.0013 -0.9758 -0.2188
vn 0.6446 -0.7375 0.2015
vn -0.5862 -0.3499 0.7308
vn -0.1893 0.0772 0.9789
vn -0.9946 -0.0339 0.0986
vn -0.2307 -0.9119 0.3394
vn -0.9839 -0.1158 0.1362
vn 0.9382 0.3391 0.0698
vn 0.8367 -0.4035 -0.3703
vn 0.5930 -0.2878 0.7520
vn 0.4593 -0.1742 0.8710
vn -0.3899 0.5741 0.7200
vn -0.3499 0.7694 0.5343
vn 0.2611 0.0811 0.9619
vn -0.7629 0.6451 -0.0424
vn 0.8947 -0.1406 0.4239
vn -0.2164 0.8255 0.5213
vn 0.2291 0.9697 -0.0851
vn -0.7831 0.6140 -0.0992
vn -0.7716 0.6338 -0.0542
vn -0.9996 -0.0045 0.0289
vn -0.7154 0.6976 -0.0383
vn 0.0982 0.8820 -0.4609
vn -0.9986 0.0508 -0.0119
vn 0.0210 0.8977 -0.4402
vn -0.2281 0.0406 -0.9728
vn 0.2661 0.8700 -0.4151
vn -0.0720 0.2021 -0.9767
vn -0.8995 -0.2700 -0.3435
vn 0.0712 -0.9955 0.0629
vn 0.5365 -0.7001 0.4712
vn 0.9129 -0.4082 0.0005
vt 0.450382 0.540634
vt 0.450000 0.482929
vt 0.475000 0.484904
vt 0.474940 0.533959
vt 0.508266 0.477281
vt 0.490785 0.450934
vt 0.419554 0.504260
vt 0.421944 0.473795
vt 0.423003 0.526468
vt 0.498522 0.535475
vt 0.531409 0.388208
vt 0.543144 0.410201
vt 0.524204 0.387444
vt 0.195911 0.963817
vt 0.149908 0.968252
vt 0.173263 0.970212
vt 0.551422 0.477813
vt 0.499072 0.516288
vt 0.518974 0.482574
vt 0.528590 0.472304
vt 0.528997 0.495584
vt 0.514078 0.488898
vt 0.515580 0.467970
vt 0.525725 0.449229
vt 0.500000 0.456905
vt 0.528615 0.518459
vt 0.494998 0.522243
vt 0.499905 0.388645
vt 0.509817 0.533438
vt 0.533763 0.451424
vt 0.475000 0.445321
vt 0.498742 0.505741
vt 0.512593 0.497216
vt 0.477533 0.492589
vt 0.530923 0.430243
vt 0.454812 0.473925
vt 0.482797 0.391151
vt 0.328188 0.216626
vt 0.311716 0.157739
vt 0.314376 0.173013
vt 0.527663 0.473700
vt 0.448509 0.426491
vt 0.544506 0.501175
vt 0.523438 0.506566
vt 0.508624 0.521192
vt 0.468479 0.504014
vt 0.454621 0.394385
vt 0.449778 0.500326
vt 0.414024 0.438919
vt 0.433803 0.490012
vt 0.403286 0.484378
vt 0.509056 0.515288
vt 0.433620 0.402123
vt 0.255090 0.955959
vt 0.218144 0.948050
vt 0.257723 0.970490
vt 0.326836 0.249942
vt 0.338216 0.256530
vt 0.290684 0.967152
vt 0.328323 0.313546
vt 0.336887 0.330020
vt 0.328320 0.347251
vt 0.318866 0.962873
vt 0.322372 0.967116
vt 0.352137 0.956868
vt 0.418674 0.410514
vt 0.476508 0.429366
vt 0.457173 0.416659
vt 0.438029 0.450000
vt 0.483178 0.451116
vt 0.474330 0.483907
vt 0.505234 0.469767
vt 0.405080 0.464401
vt 0.426650 0.467037
vt 0.413136 0.445397
vt 0.431463 0.417139
vt 0.449086 0.476534
vt 0.507323 0.498795
vt 0.519593 0.502167
vt 0.530969 0.524917
vt 0.446959 0.450887
vt 0.481920 0.429757
vt 0.427162 0.541113
vt 0.495493 0.490801
vt 0.483594 0.505279
vt 0.577590 0.467334
vt 0.571041 0.478498
vt 0.559680 0.493664
vt 0.597925 0.463207
vt 0.520907 0.488331
s 1
usemtl lambert3
f 12/1/1 1/2/2 2/3/3
f 40/4/4 2/3/3 3/5/5
f 2/3/3 1/2/2 4/6/6
f 34/7/7 8/8/8 1/2/2
f 10/9/9 34/7/7 1/2/2
f 12/1/1 10/9/9 1/2/2
f 40/4/4 12/1/1 2/3/3
f 5/10/10 40/4/4 3/5/5
f 3/5/5 2/3/3 4/6/6
f 13/11/11 37/12/12 22/13/13
f 32/14/14 13/15/11 16/16/15
f 3/17/5 28/18/16 7/19/17
f 14/20/18 38/21/19 19/22/20
f 14/20/18 20/23/21 15/24/22
f 37/12/12 24/25/23 22/13/13
f 17/26/24 18/27/25 38/21/19
f 19/22/20 20/23/21 14/20/18
f 24/25/23 16/28/15 22/13/13
f 3/17/5 26/29/26 28/18/16
f 20/30/21 24/25/23 37/12/12
f 24/25/23 21/31/27 16/28/15
f 28/32/16 18/33/25 17/34/24
f 19/22/20 38/21/19 18/27/25
f 20/23/21 37/35/12 15/24/22
f 23/36/28 21/31/27 24/25/23
f 21/31/27 25/37/29 16/28/15
f 16/38/15 13/39/11 22/40/13
f 19/41/20 24/25/23 20/30/21
f 21/31/27 31/42/30 25/37/29
f 27/43/31 26/29/26 3/17/5
f 18/44/25 26/45/26 19/41/20
f 26/45/26 24/25/23 19/41/20
f 27/46/31 23/36/28 24/25/23
f 23/36/28 31/42/30 21/31/27
f 31/42/30 35/47/32 25/37/29
f 26/45/26 27/46/31 24/25/23
f 27/46/31 29/48/33 23/36/28
f 31/42/30 9/49/34 35/47/32
f 23/36/28 30/50/35 33/51/36
f 26/52/26 18/33/25 28/32/16
f 30/50/35 23/36/28 29/48/33
f 33/51/36 31/42/30 23/36/28
f 35/47/32 9/49/34 36/53/37
f 10/54/9 11/55/38 32/14/14
f 33/51/36 9/49/34 31/42/30
f 35/56/32 10/54/9 32/14/14
f 25/57/29 32/58/14 16/38/15
f 10/54/9 35/56/32 34/59/7
f 35/60/32 32/58/14 25/57/29
f 34/61/7 35/60/32 36/62/37
f 34/63/7 36/64/37 8/65/8
f 36/53/37 9/49/34 8/66/8
f 15/67/22 37/68/12 39/69/39
f 39/69/39 14/70/18 15/67/22
f 5/71/10 38/72/19 14/70/18
f 11/73/38 12/74/1 39/69/39
f 11/73/38 39/69/39 32/75/14
f 13/76/11 32/75/14 39/69/39
f 37/68/12 13/76/11 39/69/39
f 39/69/39 40/77/4 14/70/18
f 40/77/4 5/71/10 14/70/18
f 5/71/10 6/78/40 38/72/19
f 12/74/1 40/77/4 39/69/39
f 7/79/17 6/80/40 5/10/10
f 5/10/10 3/5/5 7/79/17
f 9/81/34 33/82/36 4/6/6
f 9/81/34 4/6/6 1/2/2
f 1/2/2 8/8/8 9/81/34
f 11/83/38 10/9/9 12/1/1
f 6/84/40 7/19/17 28/18/16
f 17/85/24 6/84/40 28/18/16
f 3/17/5 4/86/6 30/87/35
f 3/17/5 30/87/35 27/43/31
f 27/43/31 30/87/35 29/88/33
f 33/89/36 30/87/35 4/86/6
f 6/78/40 17/90/24 38/72/19
