# Blender 4.0.1
# www.blender.org
mtllib shard11.mtl
o shard11
v 0.053347 -0.218959 -0.161363
v 0.147685 -0.179039 -0.341184
v 0.056505 -0.323631 -0.506902
v 0.161069 -0.069645 0.128663
v -0.076858 0.347353 -0.446843
v 0.102586 0.239821 -0.305783
v -0.171421 0.186657 -0.604698
v 0.253337 0.163955 -0.197263
v 0.292120 -0.019485 -0.176157
v -0.060716 -0.468392 -0.641977
v -0.074837 -0.242373 -0.580645
v -0.164574 -0.062736 -0.684919
v -0.206517 0.274543 -0.615342
v -0.282841 0.353292 -0.671058
v -0.218184 0.430097 -0.596893
v -0.089132 0.240360 -0.294641
v -0.200500 0.148357 -0.627773
v -0.209280 0.384811 -0.491903
v -0.208922 0.227610 -0.609703
v 0.043680 -0.293687 -0.315454
v 0.033895 0.111384 -0.105247
v -0.270185 0.320837 -0.636786
v 0.240307 0.110057 -0.119168
v -0.284202 0.482104 -0.645516
v 0.293423 0.025966 -0.024976
vn 0.8466 0.1751 0.5026
vn -0.0058 -0.1294 0.9916
vn -0.5558 -0.6926 0.4597
vn 0.8794 -0.2992 -0.3704
vn -0.1647 -0.8505 0.4994
vn 0.8644 -0.3182 -0.3892
vn 0.5937 0.8026 -0.0582
vn 0.5720 0.8050 -0.1575
vn 0.9459 -0.2414 -0.2168
vn -0.5859 -0.0210 -0.8101
vn 0.6288 0.2083 -0.7492
vn -0.2980 -0.3998 -0.8668
vn 0.6724 0.6755 -0.3025
vn 0.7153 0.6868 -0.1291
vn -0.7399 0.0705 -0.6690
vn 0.4321 -0.0024 -0.9018
vn -0.5135 -0.1089 -0.8511
vn -0.3941 0.8327 -0.3890
vn -0.7580 -0.3299 -0.5627
vn -0.6260 0.3693 0.6868
vn -0.5655 0.4846 0.6674
vn -0.8278 -0.5585 -0.0530
vn -0.5525 0.4971 0.6690
vn 0.2214 0.6668 0.7116
vn -0.2320 -0.7561 -0.6119
vt 0.493815 0.502454
vt 0.484730 0.475363
vt 0.525698 0.473046
vt 0.551980 0.489807
vt 0.555441 0.469862
vt 0.574244 0.480458
vt 0.513435 0.535348
vt 0.580470 0.490339
vt 0.546912 0.482997
vt 0.521429 0.559919
vt 0.498188 0.498125
vt 0.549030 0.560612
vt 0.587871 0.517696
vt 0.574766 0.550508
vt 0.602507 0.490245
vt 0.514892 0.481784
vt 0.589462 0.527963
vt 0.596906 0.510894
vt 0.612594 0.508239
vt 0.620643 0.491932
vt 0.611657 0.514726
vt 0.612266 0.502317
vt 0.573344 0.527793
vt 0.492485 0.500588
vt 0.530351 0.513315
vt 0.622573 0.526374
vt 0.604113 0.539915
vt 0.908899 0.098048
vt 0.908037 0.084969
vt 0.898288 0.107298
vt 0.904828 0.118535
vt 0.544603 0.453586
vt 0.924753 0.071932
vt 0.585304 0.450417
vt 0.630683 0.544779
vt 0.089620 0.734810
vt 0.089364 0.738284
vt 0.095289 0.741094
vt 0.606233 0.472050
vt 0.628552 0.528977
vt 0.420964 0.519803
vt 0.416305 0.495103
vt 0.426020 0.499177
vt 0.505232 0.542067
vt 0.492303 0.582698
vt 0.482372 0.592408
vt 0.487028 0.600414
vt 0.480154 0.618150
vt 0.480926 0.555416
vt 0.484019 0.515264
vt 0.511130 0.489955
vt 0.511180 0.507430
vt 0.515673 0.518989
vt 0.512416 0.507433
vt 0.603114 0.466673
vt 0.534464 0.593337
vt 0.582932 0.419153
vt 0.438973 0.514730
s 1
usemtl lambert3
f 25/1/1 4/2/2 1/3/3
f 2/4/4 20/5/5 3/6/6
f 2/7/4 5/8/7 6/9/8
f 2/7/4 3/10/6 5/8/7
f 9/11/9 2/7/4 6/9/8
f 3/10/6 11/12/10 5/8/7
f 5/8/7 11/12/10 7/13/11
f 11/12/10 12/14/12 7/13/11
f 5/8/7 7/13/11 15/15/13
f 9/11/9 6/9/8 8/16/14
f 12/14/12 17/17/15 7/13/11
f 15/15/13 7/13/11 13/18/16
f 14/19/17 15/15/13 13/18/16
f 24/20/18 15/15/13 14/19/17
f 19/21/19 17/22/15 16/23/20
f 4/24/2 21/25/21 1/3/3
f 22/26/22 19/21/19 18/27/23
f 19/28/19 13/29/16 7/30/11
f 17/31/15 19/28/19 7/30/11
f 18/27/23 19/21/19 16/23/20
f 1/3/3 21/25/21 20/32/5
f 19/28/19 22/33/22 13/29/16
f 20/32/5 21/25/21 11/34/10
f 18/27/23 24/35/18 22/26/22
f 13/36/16 22/37/22 14/38/17
f 21/25/21 16/23/20 12/39/12
f 11/34/10 21/25/21 12/39/12
f 24/35/18 14/40/17 22/26/22
f 12/39/12 16/23/20 17/22/15
f 9/41/9 8/42/14 23/43/24
f 6/44/8 5/45/7 18/46/23
f 5/45/7 15/47/13 18/46/23
f 18/46/23 15/47/13 24/48/18
f 18/46/23 16/49/20 6/44/8
f 16/49/20 21/50/21 6/44/8
f 25/51/1 6/44/8 21/50/21
f 4/2/2 25/51/1 21/50/21
f 6/44/8 25/51/1 23/52/24
f 23/52/24 8/53/14 6/44/8
f 9/54/9 25/1/1 1/3/3
f 1/3/3 20/5/5 9/54/9
f 20/5/5 2/4/4 9/54/9
f 20/5/5 10/55/25 3/6/6
f 3/10/6 10/56/25 11/12/10
f 10/57/25 20/32/5 11/34/10
f 25/58/1 9/41/9 23/43/24
