# Blender 4.0.1
# www.blender.org
mtllib shard10.mtl
o defaultMaterial.008
v -5.392438 6.691567 -7.356939
v -7.550979 6.034190 -6.214922
v -7.514431 6.156259 -6.233013
v -7.196560 6.643864 -6.306243
v -7.080555 6.705205 -6.301672
v -5.362325 10.074964 -7.786422
v -5.392179 10.497685 2.311379
v -5.392438 11.007616 2.427700
v -5.392438 9.959530 -7.825271
v -5.392400 9.577787 -7.696338
v -5.392438 6.691567 -7.356939
v -7.514894 6.157440 1.970531
v -7.196490 6.648603 1.865420
v -7.085816 6.708740 1.852295
v -5.358789 11.118879 2.436017
v -5.392438 9.959530 -7.825271
v -5.390904 6.708550 2.963519
v -5.295024 10.364220 2.410448
v -5.197784 10.320828 2.432108
v -5.392438 6.708666 1.833986
v -5.392237 6.708651 1.982306
v -5.392438 6.708666 1.833986
v -5.293674 6.778598 3.063277
v -5.196444 6.778598 3.063277
vn -1.0000 0.0031 0.0089
vn -0.9855 0.1647 0.0413
vn -0.9972 0.0493 0.0559
vn -0.9987 0.0491 -0.0105
vn -0.7847 0.6196 0.0178
vn -0.8566 0.5019 0.1200
vn -0.9311 0.3553 0.0832
vn -0.6717 0.7234 0.1595
vn -0.7939 0.6080 0.0035
vn -0.0306 0.9995 0.0024
vn 0.0212 0.9971 0.0727
vn -0.9425 0.3328 -0.0316
vn -0.9979 0.0602 0.0257
vn -0.9987 0.0503 -0.0028
vn -1.0000 0.0022 -0.0003
vn -0.9999 0.0004 0.0108
vn -0.9459 0.1679 0.2776
vn -0.9904 0.1336 0.0362
vn 0.0037 1.0000 0.0028
vn 0.0063 1.0000 0.0026
vn -0.4884 0.1531 0.8591
vn -0.7760 0.3297 0.5376
vn -0.0699 0.1768 0.9818
vn -0.3119 0.5007 0.8075
vt 0.553286 0.122031
vt 0.353582 0.103675
vt 0.351261 0.093499
vt 0.551800 0.114414
vt 0.974605 0.283540
vt 0.826700 0.283540
vt 0.826700 0.285953
vt 0.825256 0.272286
vt 0.972457 0.272286
vt 0.972457 0.269857
vt 0.825256 0.269857
vt 0.506029 0.476883
vt 0.506029 0.272020
vt 0.503712 0.272020
vt 0.363109 0.179285
vt 0.360149 0.179285
vt 0.340569 0.179287
vt 0.546513 0.179626
vt 0.972193 0.241826
vt 0.802178 0.241959
vt 0.338578 0.177889
vt 0.351605 0.106338
vt 0.351173 0.107204
s 1
usemtl spaceship
f 10/1/1 7/2/2 8/3/3
f 8/3/3 9/4/4 10/1/1
f 12/5/5 3/6/6 2/7/7
f 4/8/8 13/9/9 14/10/10
f 14/10/10 5/11/11 4/8/8
f 3/6/6 12/5/5 13/9/9
f 13/9/9 4/8/8 3/6/6
f 15/12/12 6/13/13 16/14/14
f 7/2/2 20/15/15 21/16/16
f 7/2/2 21/16/16 17/17/17
f 1/18/18 20/15/15 7/2/2
f 7/2/2 10/1/1 1/18/18
f 5/11/11 14/10/10 22/19/19
f 22/19/19 11/20/20 5/11/11
f 23/21/21 18/22/22 7/2/2
f 7/2/2 17/17/17 23/21/21
f 24/21/23 19/23/24 18/22/22
f 18/22/22 23/21/21 24/21/23
