# Blender 4.0.1
# www.blender.org
mtllib shard9.mtl
o defaultMaterial.007
v -7.684566 3.236707 -5.002617
v -7.685756 3.263479 -5.029208
v -7.667353 3.231583 -4.197229
v -7.684566 3.236707 -5.002617
v -7.705172 2.328084 -3.791400
v -8.955542 2.417174 -3.740185
v -8.952426 2.394621 -3.524628
v -7.705871 2.323302 -3.587258
v -8.955810 3.266894 -5.019853
v -8.955810 3.292879 -5.047379
v -7.673276 2.590233 -3.554883
v -7.685755 3.982865 -5.029208
v -7.684941 4.013440 -5.007109
v -8.955810 3.292879 -5.047379
v -8.955810 3.961169 -5.051477
v -7.685755 3.982865 -5.029208
v -7.685756 3.263479 -5.029208
v -7.712993 2.203038 -3.787584
v -8.975155 2.291650 -3.742186
v -8.955810 2.326005 -3.769626
v -7.710694 2.236516 -3.816097
v -8.955810 2.326005 -3.769626
v -8.955810 2.400613 -3.760834
v -7.706392 2.311284 -3.811552
v -7.710694 2.236516 -3.816097
v -8.970083 3.239118 -5.169024
v -8.955810 3.241748 -5.157023
v -8.955810 2.419822 -4.778319
v -8.974255 2.405534 -4.773213
v -8.962764 2.255171 -3.408458
v -7.715045 2.166155 -3.435661
v -8.955810 3.269351 -4.261539
v -8.955810 3.266894 -5.019853
v -8.952426 2.394621 -3.524628
v -8.952133 2.659878 -3.504231
v -7.705871 2.323302 -3.587258
v -8.955810 3.961169 -5.051477
v -8.955810 3.991482 -5.029006
v -7.684941 4.013440 -5.007109
v -7.677210 4.388693 -3.873275
v -8.970080 4.019298 -5.169024
v -8.955810 4.015782 -5.157005
v -8.955810 3.292879 -5.047379
v -8.955810 3.241748 -5.157023
v -8.955810 4.015782 -5.157005
v -8.955810 3.961169 -5.051477
v -8.955810 3.991482 -5.029006
v -8.955810 4.349386 -3.824385
v -8.955810 4.604526 -4.780421
v -8.955810 3.991482 -5.029006
v -7.715356 2.166074 -1.500363
v -8.962790 2.254271 -1.530708
v -8.970080 4.019298 -5.169024
v -8.974511 4.621070 -4.773195
v -8.955810 4.604526 -4.780421
v -8.955810 4.015782 -5.157005
v -7.676472 4.421783 -3.773295
v -7.676472 4.473777 -3.480341
v -8.955810 4.379477 -3.723107
v -7.709140 4.725718 -3.820843
v -8.955810 4.671905 -3.775306
v -8.955810 4.745968 -3.787642
v -7.712324 4.800065 -3.833128
v -7.712324 4.800065 -3.833128
v -8.955810 4.745968 -3.787642
v -8.960984 4.781645 -3.761878
v -7.717159 4.835557 -3.807013
v -8.955810 4.745968 -3.787642
v -8.955810 4.349386 -3.824385
v -7.714677 4.892757 -3.435669
v -7.717159 4.835557 -3.807013
v -8.960984 4.781645 -3.761878
v -8.961869 4.837461 -3.408483
v -7.676472 4.473777 -3.480341
v -7.713514 4.736256 -3.498015
v -7.715340 2.316351 -0.148073
v -8.959088 2.401160 -0.239996
v -8.961807 4.836535 -1.530680
v -7.714880 4.892643 -1.500351
v -7.714735 3.211554 0.290067
v -8.956269 3.238814 0.194750
v -7.715010 4.048918 0.288278
v -8.957914 4.019584 0.179127
v -8.958785 4.618380 -0.239974
v -7.715087 4.672421 -0.148054
v -15.126905 2.694942 -3.274063
v -15.122039 2.728198 -3.517019
v -15.105955 2.838073 -4.319735
v -15.456622 2.933662 -4.156661
v -15.459016 3.374655 -4.576285
v -15.096128 3.373624 -4.716516
v -15.459147 3.873169 -4.575814
v -15.096050 3.874715 -4.716523
v -15.122039 2.728198 -3.517019
v -15.483291 2.841688 -3.496580
v -15.621605 2.978636 -4.079937
v -15.629746 3.375140 -4.510310
v -15.629978 3.872442 -4.509614
v -15.653382 2.894915 -3.485821
v -15.127054 2.690103 -1.680659
v -15.893144 3.136139 -3.792076
v -15.958221 3.368247 -4.255396
v -15.456069 4.288263 -4.154865
v -15.102062 4.369293 -4.320023
v -15.958461 3.878955 -4.254035
v -15.903679 3.055908 -3.476831
v -15.622622 4.250143 -4.077164
v -15.116817 4.513720 -3.545619
v -15.121988 4.564339 -3.274201
v -15.127054 2.690103 -1.680659
v -15.491265 2.809673 -1.654521
v -15.491181 2.814476 -3.301280
v -15.126905 2.694942 -3.274063
v -16.135168 3.326755 -3.469130
v -15.958221 3.368247 -4.255396
v -15.893144 3.136139 -3.792076
v -15.893007 4.111560 -3.790698
v -16.135168 3.920377 -3.469130
v -15.958461 3.878955 -4.254035
v -15.903679 3.055908 -3.476831
v -15.662619 2.865929 -1.642223
v -15.662568 2.870714 -3.314085
v -15.116817 4.513720 -3.545619
v -15.479826 4.407609 -3.526831
v -15.488379 4.450574 -3.300723
v -15.121988 4.564339 -3.274201
v -15.105528 2.820272 -0.694269
v -15.650536 4.357669 -3.517992
v -15.660758 4.397050 -3.313202
v -15.906733 3.021274 -1.596651
v -15.907560 3.026344 -3.360667
v -15.893007 4.111560 -3.790698
v -8.954576 4.431470 -3.430153
v -15.902971 4.199905 -3.498172
v -15.907717 4.241993 -3.358814
v -15.906733 3.021274 -1.596651
v -16.135168 3.326755 -1.487349
v -15.907560 3.026344 -3.360667
v -15.121653 4.559358 -1.680506
v -15.907717 4.241993 -3.358814
v -15.902971 4.199905 -3.498172
v -15.105528 2.820272 -0.694269
v -15.456232 2.913970 -0.861290
v -15.488331 4.445711 -1.654654
v -15.121653 4.559358 -1.680506
v -15.091446 3.373523 -0.276274
v -15.621234 2.958054 -0.939870
v -15.660846 4.392241 -1.642492
v -16.135168 3.920377 -1.487349
v -15.907901 4.237752 -1.597185
v -15.888083 3.111436 -1.232930
v -15.907901 4.237752 -1.597185
v -15.100407 3.874612 -0.360304
v -15.888083 3.111436 -1.232930
v -15.091446 3.373523 -0.276274
v -15.455555 3.374499 -0.415919
v -15.103808 4.351364 -0.694142
v -15.626863 3.374958 -0.481620
v -15.952779 3.367969 -0.731753
v -15.952779 3.367969 -0.731753
v -15.456736 4.277052 -0.866440
v -15.103808 4.351364 -0.694142
v -15.100407 3.874612 -0.360304
v -15.462480 3.873572 -0.502823
v -15.940798 3.880222 -0.809461
v -15.622781 4.242090 -0.947503
v -15.886167 4.119051 -1.243637
v -15.632829 3.873083 -0.569876
v -15.886167 4.119051 -1.243637
v -15.940798 3.880222 -0.809461
v -15.103808 4.351364 -0.694142
v -15.456736 4.277052 -0.866440
v -15.622781 4.242090 -0.947503
v -15.886167 4.119051 -1.243637
v -15.105955 2.838073 -4.319735
v -15.096128 3.373624 -4.716516
v -8.970083 3.239118 -5.169024
v -8.974255 2.405534 -4.773213
v -8.970080 4.019298 -5.169024
v -15.096050 3.874715 -4.716523
v -15.102062 4.369293 -4.320023
v -8.974511 4.621070 -4.773195
v -8.955810 3.266894 -5.019853
v -8.974511 4.621070 -4.773195
v -8.960984 4.781645 -3.761878
v -8.955810 4.349386 -3.824385
v -8.955810 4.745968 -3.787642
v -8.955810 4.671905 -3.775306
v -8.975155 2.291650 -3.742186
v -15.122039 2.728198 -3.517019
v -8.955810 2.326005 -3.769626
v -8.975155 2.291650 -3.742186
v -8.955810 2.419822 -4.778319
v -8.955810 2.419822 -4.778319
v -8.955810 2.518205 -4.697472
v -8.955810 2.400613 -3.760834
v -8.955810 2.326005 -3.769626
v -8.955745 4.656633 -3.753711
v -8.954782 4.705342 -3.479262
v -8.954576 4.431470 -3.430153
v -8.955810 4.379477 -3.723107
v -7.705172 2.328084 -3.791400
v -7.706392 2.311284 -3.811552
v -8.955810 2.400613 -3.760834
v -8.955542 2.417174 -3.740185
v -7.709140 4.725718 -3.820843
v -7.706847 4.710287 -3.799512
v -8.955745 4.656633 -3.753711
v -8.955810 4.671905 -3.775306
v -8.955745 4.656633 -3.753711
v -8.955810 4.379477 -3.723107
v -7.674586 2.612534 -3.767276
v -7.673102 2.632866 -3.800921
v -8.955475 2.682135 -3.716951
v -8.955810 2.701534 -3.837652
v -7.667353 3.231583 -4.197229
v -7.674586 2.612534 -3.767276
v -7.673276 2.590233 -3.554883
v -8.955810 2.701534 -3.837652
v -8.955810 3.269351 -4.261539
v -8.952133 2.659878 -3.504231
v -8.955475 2.682135 -3.716951
v -7.713514 4.736256 -3.498015
v -7.706847 4.710287 -3.799512
v -8.954782 4.705342 -3.479262
v -8.955745 4.656633 -3.753711
v -8.952426 2.394621 -3.524628
v -8.955542 2.417174 -3.740185
v -8.955475 2.682135 -3.716951
v -8.952133 2.659878 -3.504231
v -8.955810 3.269351 -4.261539
v -8.955810 2.701534 -3.837652
v -8.955810 2.400613 -3.760834
v -8.955810 2.518205 -4.697472
v -8.955542 2.417174 -3.740185
v -8.955810 2.400613 -3.760834
v -8.955810 2.701534 -3.837652
v -8.955475 2.682135 -3.716951
v -8.955810 3.266894 -5.019853
v -8.954576 4.431470 -3.430153
v -8.954782 4.705342 -3.479262
vn 1.0000 -0.0000 -0.0000
vn -0.0289 -0.1642 -0.9860
vn 1.0000 -0.0000 -0.0042
vn 0.0669 0.9957 0.0645
vn 0.0124 -0.6962 -0.7177
vn -0.0071 -0.7161 -0.6979
vn -0.0071 -0.7162 -0.6979
vn -0.0135 -0.7196 -0.6943
vn 0.0182 0.0242 -0.9995
vn 0.0159 -0.0029 -0.9999
vn 0.0159 -0.0030 -0.9999
vn 0.0159 -0.0257 -0.9995
vn -0.0727 -0.6207 -0.7806
vn -0.0755 -0.9788 -0.1903
vn -0.0744 -0.9895 -0.1236
vn 0.2971 -0.7441 -0.5984
vn -0.0323 0.0898 -0.9954
vn 0.6633 0.0673 -0.7453
vn 0.6957 0.0645 -0.7154
vn -0.0873 -0.8486 -0.5218
vn -0.0818 -0.2856 -0.9548
vn 0.5197 -0.2132 -0.8273
vn 0.3795 -0.3929 -0.8376
vn -0.0713 -0.9973 -0.0168
vn -0.0713 -0.9973 -0.0181
vn -0.0305 -0.9995 0.0003
vn -0.0265 -0.9996 -0.0014
vn -0.0277 -0.9996 -0.0035
vn -0.0817 0.0957 -0.9921
vn -0.0390 0.1010 -0.9941
vn -0.0605 0.1168 -0.9913
vn 0.0112 0.5671 -0.8236
vn 0.0019 0.6045 -0.7966
vn 0.0039 0.5906 -0.8069
vn 0.6442 -0.0000 -0.7649
vn -0.0304 0.9561 -0.2915
vn -0.0261 0.9539 -0.2990
vn -0.0274 0.9539 -0.2990
vn -0.0550 0.9479 -0.3138
vn 0.9998 0.0217 -0.0036
vn -0.0724 -0.9963 0.0464
vn -0.0725 -0.9962 0.0475
vn 0.4131 0.4967 -0.7633
vn 0.4132 0.4967 -0.7633
vn -0.0399 0.9776 -0.2066
vn -0.0764 0.9718 -0.2231
vn -0.0508 0.5836 -0.8104
vn -0.0489 0.5839 -0.8104
vn -0.0549 0.5831 -0.8106
vn -0.0549 0.5831 -0.8105
vn 0.9959 0.0890 -0.0146
vn -0.0452 0.9987 -0.0249
vn -0.0201 0.9995 -0.0250
vn -0.0197 0.9879 -0.1540
vn -0.0500 0.9846 -0.1673
vn -0.0856 -0.9493 0.3025
vn -0.0889 -0.8738 0.4781
vn -0.0479 0.9961 0.0745
vn -0.0477 0.9965 0.0688
vn -0.0860 -0.2381 0.9674
vn -0.0950 0.3591 0.9284
vn -0.1006 0.0209 0.9947
vn -0.0690 0.8975 0.4357
vn -0.0692 0.8928 0.4452
vn -0.0918 0.5676 0.8182
vn -0.0871 -0.9887 -0.1218
vn -0.0845 -0.9963 -0.0180
vn -0.0970 -0.2888 -0.9525
vn -0.1028 -0.8566 -0.5056
vn -0.3599 -0.8398 -0.4064
vn -0.3921 -0.3651 -0.8444
vn -0.3852 0.3791 -0.8414
vn -0.0941 0.3177 -0.9435
vn -0.3097 -0.9403 -0.1410
vn -0.4868 -0.7882 -0.3765
vn -0.5546 -0.3491 -0.7554
vn -0.5478 0.3564 -0.7569
vn -0.4628 -0.8714 -0.1630
vn -0.0849 -0.9953 0.0460
vn -0.6429 -0.7189 -0.2645
vn -0.8628 -0.2387 -0.4457
vn -0.3369 0.8434 -0.4186
vn -0.0798 0.8809 -0.4666
vn -0.8619 0.2415 -0.4458
vn -0.6237 -0.7613 -0.1775
vn -0.4686 0.7931 -0.3891
vn -0.0613 0.9837 -0.1692
vn -0.0590 0.9980 -0.0236
vn -0.0846 -0.9963 -0.0180
vn -0.0848 -0.9953 0.0460
vn -0.3111 -0.9493 0.0449
vn -0.3110 -0.9502 -0.0190
vn -0.9815 -0.1848 -0.0509
vn -0.6358 0.7196 -0.2793
vn -0.9820 0.1823 -0.0502
vn -0.4599 -0.8872 0.0378
vn -0.4598 -0.8879 -0.0154
vn -0.0614 0.9837 -0.1692
vn -0.2897 0.9387 -0.1867
vn -0.2950 0.9552 -0.0223
vn -0.0999 -0.8836 0.4575
vn -0.4457 0.8714 -0.2050
vn -0.4501 0.8928 -0.0172
vn -0.7028 -0.7108 0.0268
vn -0.7124 -0.7017 -0.0100
vn -0.6357 0.7196 -0.2793
vn -0.0394 0.9839 -0.1745
vn -0.0554 0.9831 -0.1742
vn -0.6216 0.7539 -0.2126
vn -0.7225 0.6913 -0.0115
vn -0.7124 -0.7017 -0.0101
vn -0.7029 -0.7108 0.0268
vn -0.9807 -0.1873 0.0564
vn -0.0606 0.9955 0.0733
vn -0.3539 -0.8552 0.3787
vn -0.2944 0.9528 0.0748
vn -0.1022 -0.2704 0.9573
vn -0.4809 -0.7967 0.3660
vn -0.4487 0.8917 0.0591
vn -0.9795 0.1930 0.0569
vn -0.7127 0.7005 0.0383
vn -0.6367 -0.7244 0.2644
vn -0.1005 0.3439 0.9336
vn -0.6366 -0.7244 0.2644
vn -0.1021 -0.2704 0.9573
vn -0.4026 -0.3109 0.8610
vn -0.0800 0.8963 0.4363
vn -0.5630 -0.3018 0.7694
vn -0.8461 -0.2219 0.4847
vn -0.3329 0.8506 0.4069
vn -0.0800 0.8963 0.4362
vn -0.3789 0.4027 0.8332
vn -0.8512 0.2621 0.4546
vn -0.4633 0.7930 0.3956
vn -0.6209 0.7233 0.3022
vn -0.5378 0.3914 0.7467
vn -0.6209 0.7233 0.3021
vn -0.8513 0.2621 0.4546
vn -0.0800 0.8962 0.4363
vn -0.0873 -0.8486 -0.5219
vn -0.0819 -0.2855 -0.9549
vn -0.0679 0.8726 -0.4837
vn -0.0801 0.3145 -0.9459
vn -0.0798 0.8808 -0.4667
vn 0.8884 0.4531 -0.0743
vn 1.0000 -0.0001 -0.0005
vn 0.5103 -0.6991 -0.5008
vn 0.7666 -0.6388 -0.0647
vn 0.6633 0.0693 -0.7451
vn 1.0000 -0.0006 -0.0034
vn 0.0294 0.7733 -0.6334
vn 0.0294 0.7733 -0.6333
vn 0.0137 -0.8129 -0.5822
vn 0.6495 -0.6181 -0.4429
vn 0.6495 -0.6180 -0.4429
vn -0.0535 -0.9669 -0.2493
vn -0.0929 -0.9062 -0.4125
vn 0.1418 -0.9420 -0.3042
vn -0.0075 -0.5856 -0.8106
vn -0.1222 -0.4944 -0.8606
vn 0.0083 -0.5752 -0.8180
vn -0.0581 -0.9929 -0.1036
vn -0.0619 -0.9927 -0.1034
vn -0.0676 -0.9922 -0.1046
vn -0.0582 -0.9930 -0.1030
vn -0.1547 -0.9812 0.1153
vn -0.2320 -0.9645 0.1261
vn 0.0370 -0.9910 0.1289
vn 0.0370 -0.9910 0.1288
vn 0.9999 0.0006 -0.0151
vn 0.9999 0.0003 -0.0148
vn 0.9999 0.0005 -0.0149
vn 1.0000 -0.0005 -0.0042
vn 1.0000 -0.0005 -0.0043
vn -0.0349 -0.2019 -0.9788
vn -0.0047 -0.1217 -0.9926
vn -0.0235 -0.1251 -0.9919
vt 0.618953 0.957973
vt 0.618863 0.971285
vt 0.621046 0.972234
vt 0.621068 0.956969
vt 0.990279 0.774425
vt 0.990153 0.771204
vt 0.962966 0.772268
vt 0.963092 0.775488
vt 0.618322 0.971865
vt 0.613773 0.987078
vt 0.615653 0.988707
vt 0.591220 0.936558
vt 0.588879 0.941592
vt 0.594246 0.944092
vt 0.602858 0.973893
vt 0.596593 0.987127
vt 0.596626 0.993349
vt 0.618519 0.957287
vt 0.667520 0.666826
vt 0.668370 0.670859
vt 0.692643 0.669973
vt 0.692643 0.665838
vt 0.667233 0.625981
vt 0.692643 0.625405
vt 0.692643 0.624663
vt 0.667233 0.625228
vt 0.692643 0.611567
vt 0.667233 0.610909
vt 0.963697 0.991272
vt 0.964160 0.989715
vt 0.937662 0.981824
vt 0.937198 0.983381
vt 0.936172 0.986824
vt 0.962671 0.994716
vt 0.615828 0.989146
vt 0.621415 0.972302
vt 0.966111 0.982237
vt 0.939816 0.974810
vt 0.667233 0.641983
vt 0.692643 0.640292
vt 0.692643 0.660782
vt 0.667233 0.661304
vt 0.667233 0.610154
vt 0.692643 0.610828
vt 0.621436 0.956881
vt 0.692643 0.586185
vt 0.667233 0.586407
vt 0.615668 0.944396
vt 0.976703 0.941324
vt 0.950100 0.935107
vt 0.615791 0.943898
vt 0.692643 0.584124
vt 0.667233 0.584298
vt 0.990335 0.775881
vt 0.963149 0.776943
vt 0.597388 0.937306
vt 0.596027 0.945206
vt 0.963206 0.784756
vt 0.990469 0.784087
vt 0.983937 0.912513
vt 0.957074 0.907602
vt 0.963316 0.825769
vt 0.990579 0.826353
vt 0.960313 0.887243
vt 0.962244 0.870294
vt 0.987254 0.891009
vt 0.990435 0.856270
vt 0.963240 0.854360
vt 0.989384 0.872852
vt 0.808601 0.943347
vt 0.809893 0.938148
vt 0.795739 0.685892
vt 0.805963 0.685892
vt 0.805963 0.678395
vt 0.795739 0.678395
vt 0.786401 0.678395
vt 0.786401 0.685892
vt 0.818130 0.685892
vt 0.818130 0.678395
vt 0.805963 0.675045
vt 0.795739 0.675045
vt 0.786401 0.675045
vt 0.818130 0.675045
vt 0.818618 0.904458
vt 0.805963 0.668104
vt 0.795739 0.668104
vt 0.775221 0.678395
vt 0.775221 0.685892
vt 0.786401 0.668104
vt 0.818130 0.668104
vt 0.775221 0.675045
vt 0.828589 0.782008
vt 0.828543 0.788039
vt 0.821913 0.685892
vt 0.856552 0.685892
vt 0.856552 0.678395
vt 0.821913 0.678395
vt 0.826604 0.987526
vt 0.810828 0.987013
vt 0.819664 0.992639
vt 0.775221 0.668104
vt 0.826501 0.975866
vt 0.810651 0.976736
vt 0.826094 0.994416
vt 0.856552 0.675045
vt 0.821913 0.675045
vt 0.761185 0.685892
vt 0.765186 0.685892
vt 0.765186 0.678395
vt 0.761185 0.678395
vt 0.824320 0.883485
vt 0.765186 0.675045
vt 0.761185 0.675045
vt 0.856552 0.668104
vt 0.821913 0.668104
vt 0.819453 0.970898
vt 0.692643 0.578377
vt 0.667233 0.578299
vt 0.765186 0.668104
vt 0.761185 0.668104
vt 0.828527 0.994977
vt 0.863722 0.994658
vt 0.865511 0.987153
vt 0.828637 0.822846
vt 0.828317 0.968124
vt 0.825416 0.968932
vt 0.873838 0.685892
vt 0.873838 0.678395
vt 0.729461 0.678395
vt 0.729461 0.685892
vt 0.827181 0.868612
vt 0.873838 0.675045
vt 0.729461 0.675045
vt 0.865342 0.975520
vt 0.863453 0.967799
vt 0.873838 0.668104
vt 0.729461 0.668104
vt 0.828133 0.857554
vt 0.871237 0.992726
vt 0.883532 0.685892
vt 0.883532 0.678395
vt 0.828869 0.844865
vt 0.883532 0.675045
vt 0.883532 0.668104
vt 0.880693 0.986345
vt 0.715028 0.678395
vt 0.715028 0.685892
vt 0.894314 0.685892
vt 0.894314 0.678395
vt 0.879243 0.975979
vt 0.715028 0.675045
vt 0.721224 0.668104
vt 0.894314 0.675045
vt 0.870917 0.970153
vt 0.894314 0.668104
vt 0.906889 0.685892
vt 0.906889 0.678395
vt 0.906889 0.675045
vt 0.905656 0.668104
vt 0.956656 0.702029
vt 0.824150 0.725775
vt 0.826748 0.740101
vt 0.959707 0.721951
vt 0.962636 0.754581
vt 0.961641 0.738881
vt 0.827992 0.750974
vt 0.828720 0.764800
vt 0.597092 0.936511
vt 0.596762 0.938687
vt 0.951190 0.680043
vt 0.819589 0.708674
vt 0.597195 0.994737
vt 0.596903 0.995608
vt 0.596265 0.938877
vt 0.668374 0.671378
vt 0.692643 0.670495
vt 0.692643 0.567345
vt 0.668573 0.566275
vt 0.668534 0.566796
vt 0.692643 0.567867
vt 0.692643 0.654239
vt 0.667233 0.656226
vt 0.667233 0.657013
vt 0.692643 0.656627
vt 0.667475 0.572862
vt 0.692643 0.573133
vt 0.590377 0.989638
vt 0.592110 0.994651
vt 0.596145 0.993131
vt 0.594363 0.988126
s 0
usemtl spaceship
f 46/1/1 43/2/1 44/3/1
f 44/3/1 45/4/1 46/1/1
f 63/5/2 60/6/2 61/7/2
f 61/7/2 62/8/2 63/5/2
f 183/9/1 44/3/1 43/2/1
f 195/10/1 194/11/1 44/3/1
f 44/3/1 183/9/1 195/10/1
f 199/12/3 200/13/3 201/14/3
f 234/10/1 231/15/1 232/16/1
f 232/16/1 233/17/1 234/10/1
f 231/15/1 234/10/1 239/9/1
f 45/4/1 50/18/1 46/1/1
s 1
f 8/19/4 5/20/4 6/21/4
f 6/21/4 7/22/4 8/19/4
f 1/23/5 9/24/6 10/25/7
f 10/25/7 2/26/8 1/23/5
f 17/26/9 14/25/10 15/27/11
f 15/27/11 16/28/12 17/26/9
f 21/29/13 18/30/14 19/31/15
f 19/31/15 20/32/16 21/29/13
f 25/29/17 22/32/18 23/33/19
f 23/33/19 24/34/17 25/29/17
f 29/35/20 26/36/21 27/3/22
f 27/3/22 28/11/23 29/35/20
f 31/37/24 30/38/25 19/31/15
f 19/31/15 18/30/14 31/37/24
f 3/39/26 32/40/27 33/24/27
f 33/24/27 4/23/28 3/39/26
f 36/19/29 34/22/30 35/41/30
f 35/41/30 11/42/31 36/19/29
f 13/43/32 12/28/33 37/27/34
f 37/27/34 38/44/34 13/43/32
f 27/3/22 26/36/21 41/45/35
f 41/45/35 42/4/35 27/3/22
f 39/43/36 47/44/37 48/46/38
f 48/46/38 40/47/39 39/43/36
f 49/48/40 50/18/1 45/4/1
f 31/37/24 51/49/41 52/50/42
f 52/50/42 30/38/25 31/37/24
f 56/4/43 53/45/43 54/51/44
f 54/51/44 55/48/43 56/4/43
f 40/47/39 48/46/38 59/52/45
f 59/52/45 57/53/46 40/47/39
f 67/54/47 64/5/48 65/8/49
f 65/8/49 66/55/50 67/54/47
f 49/48/40 68/56/51 69/57/1
f 73/58/52 70/59/53 71/54/54
f 71/54/54 72/55/55 73/58/52
f 52/50/42 51/49/41 76/60/56
f 76/60/56 77/61/57 52/50/42
f 73/58/52 78/62/58 79/63/59
f 79/63/59 70/59/53 73/58/52
f 81/64/60 77/61/57 76/60/56
f 83/65/61 81/64/60 80/66/62
f 85/67/63 79/63/59 78/62/58
f 78/62/58 84/68/64 85/67/63
f 82/69/65 85/67/63 84/68/64
f 84/68/64 83/65/61 82/69/65
f 87/70/66 19/31/15 30/38/25
f 30/38/25 86/71/67 87/70/66
f 91/72/68 88/73/69 89/74/70
f 89/74/70 90/75/71 91/72/68
f 91/72/68 90/75/71 92/76/72
f 92/76/72 93/77/73 91/72/68
f 88/73/69 94/78/66 95/79/74
f 95/79/74 89/74/70 88/73/69
f 90/75/71 89/74/70 96/80/75
f 96/80/75 97/81/76 90/75/71
f 97/81/76 98/82/77 92/76/72
f 92/76/72 90/75/71 97/81/76
f 89/74/70 95/79/74 99/83/78
f 99/83/78 96/80/75 89/74/70
f 52/50/42 100/84/79 86/71/67
f 86/71/67 30/38/25 52/50/42
f 97/81/76 96/80/75 101/85/80
f 101/85/80 102/86/81 97/81/76
f 93/77/73 92/76/72 103/87/82
f 103/87/82 104/88/83 93/77/73
f 97/81/76 102/86/81 105/89/84
f 105/89/84 98/82/77 97/81/76
f 96/80/75 99/83/78 106/90/85
f 106/90/85 101/85/80 96/80/75
f 92/76/72 98/82/77 107/91/86
f 107/91/86 103/87/82 92/76/72
f 73/58/52 72/55/55 108/92/87
f 108/92/87 109/93/88 73/58/52
f 113/94/89 110/95/90 111/96/91
f 111/96/91 112/97/92 113/94/89
f 114/98/93 115/99/81 116/100/80
f 98/82/77 105/89/84 117/101/94
f 117/101/94 107/91/86 98/82/77
f 115/99/81 114/98/93 118/102/95
f 118/102/95 119/103/84 115/99/81
f 120/104/85 114/98/93 116/100/80
f 112/97/92 111/96/91 121/105/96
f 121/105/96 122/106/97 112/97/92
f 126/107/88 123/108/98 124/109/99
f 124/109/99 125/110/100 126/107/88
f 77/61/57 127/111/101 100/84/79
f 100/84/79 52/50/42 77/61/57
f 125/110/100 124/109/99 128/112/102
f 128/112/102 129/113/103 125/110/100
f 122/106/97 121/105/96 130/114/104
f 130/114/104 131/115/105 122/106/97
f 119/103/84 118/102/95 132/116/106
f 57/53/46 59/52/45 133/117/107
f 133/117/107 58/118/108 57/53/46
f 129/113/103 128/112/102 134/119/109
f 134/119/109 135/120/110 129/113/103
f 138/121/111 136/122/112 137/123/113
f 137/123/113 114/98/93 138/121/111
f 78/62/58 73/58/52 109/93/88
f 109/93/88 139/124/114 78/62/58
f 118/102/95 140/125/110 141/126/109
f 111/96/91 110/95/90 142/127/101
f 142/127/101 143/128/115 111/96/91
f 125/110/100 144/129/116 145/130/114
f 145/130/114 126/107/88 125/110/100
f 81/64/60 146/131/117 127/111/101
f 127/111/101 77/61/57 81/64/60
f 121/105/96 111/96/91 143/128/115
f 143/128/115 147/132/118 121/105/96
f 129/113/103 148/133/119 144/129/116
f 144/129/116 125/110/100 129/113/103
f 118/102/95 149/134/120 150/135/121
f 150/135/121 140/125/110 118/102/95
f 130/114/104 121/105/96 147/132/118
f 147/132/118 151/136/122 130/114/104
f 135/120/110 152/137/121 148/133/119
f 148/133/119 129/113/103 135/120/110
f 81/64/60 83/65/61 153/138/123
f 153/138/123 146/131/117 81/64/60
f 154/139/124 137/123/113 136/122/112
f 143/128/115 142/127/101 155/140/125
f 155/140/125 156/141/126 143/128/115
f 78/62/58 139/124/114 157/142/127
f 157/142/127 84/68/64 78/62/58
f 147/132/118 143/128/115 156/141/126
f 156/141/126 158/143/128 147/132/118
f 83/65/61 84/68/64 157/142/127
f 157/142/127 153/138/123 83/65/61
f 151/136/122 147/132/118 158/143/128
f 158/143/128 159/144/129 151/136/122
f 154/139/124 160/145/129 137/123/113
f 144/129/116 161/146/130 162/147/131
f 162/147/131 145/130/114 144/129/116
f 155/140/125 163/148/123 164/149/132
f 164/149/132 156/141/126 155/140/125
f 149/134/120 137/123/113 160/145/129
f 160/145/129 165/150/133 149/134/120
f 148/133/119 166/151/134 161/146/130
f 161/146/130 144/129/116 148/133/119
f 152/137/121 167/152/135 166/151/134
f 166/151/134 148/133/119 152/137/121
f 156/141/126 164/149/132 168/153/136
f 168/153/136 158/143/128 156/141/126
f 169/154/137 150/135/121 149/134/120
f 158/143/128 168/153/136 170/155/138
f 170/155/138 159/144/129 158/143/128
f 163/148/123 171/156/139 172/157/130
f 172/157/130 164/149/132 163/148/123
f 169/154/137 149/134/120 165/150/133
f 164/149/132 172/157/130 173/158/134
f 173/158/134 168/153/136 164/149/132
f 174/159/135 170/155/138 168/153/136
f 168/153/136 173/158/134 174/159/135
f 114/98/93 137/123/113 149/134/120
f 149/134/120 118/102/95 114/98/93
f 103/87/82 124/109/99 123/108/98
f 123/108/98 104/88/83 103/87/82
f 107/91/86 128/112/102 124/109/99
f 124/109/99 103/87/82 107/91/86
f 117/101/94 134/119/109 128/112/102
f 128/112/102 107/91/86 117/101/94
f 118/102/95 141/126/109 132/116/106
f 94/78/66 113/94/89 112/97/92
f 112/97/92 95/79/74 94/78/66
f 95/79/74 112/97/92 122/106/97
f 122/106/97 99/83/78 95/79/74
f 99/83/78 122/106/97 131/115/105
f 131/115/105 106/90/85 99/83/78
f 138/121/111 114/98/93 120/104/85
f 178/160/140 175/161/69 176/162/68
f 176/162/68 177/163/141 178/160/140
f 182/164/142 179/165/143 180/166/73
f 180/166/73 181/167/144 182/164/142
f 179/165/143 177/163/141 176/162/68
f 176/162/68 180/166/73 179/165/143
f 68/56/51 49/48/40 184/51/145
f 184/51/145 185/168/145 68/56/51
f 181/167/144 108/92/87 72/55/55
f 72/55/55 182/164/142 181/167/144
f 186/57/146 187/56/1 188/169/147
f 175/161/69 178/160/140 189/170/15
f 189/170/15 190/171/66 175/161/69
f 193/11/148 191/172/16 192/173/15
f 192/173/15 29/35/140 193/11/148
f 197/172/149 194/11/1 195/10/1
f 195/10/1 196/17/19 197/172/149
f 49/48/40 69/57/1 50/18/1
f 201/14/150 198/174/150 199/12/150
f 205/21/151 202/20/151 203/175/151
f 203/175/151 204/176/152 205/21/151
f 209/177/147 206/178/153 207/179/153
f 207/179/153 208/180/154 209/177/147
f 211/14/146 186/57/146 188/169/147
f 188/169/147 210/174/155 211/14/146
f 215/181/156 213/182/157 212/183/158
f 212/183/158 214/184/156 215/181/156
f 216/39/159 213/182/160 219/181/161
f 219/181/161 220/40/161 216/39/159
f 222/184/162 217/183/163 218/42/164
f 218/42/164 221/41/165 222/184/162
f 224/179/166 223/185/167 225/186/168
f 225/186/168 226/180/169 224/179/166
f 230/187/170 227/188/171 228/189/172
f 228/189/172 229/190/170 230/187/170
f 238/190/173 235/189/174 236/17/174
f 236/17/174 237/16/174 238/190/173
f 75/185/175 74/118/176 240/117/177
f 240/117/177 241/186/177 75/185/175
