# Blender 4.0.1
# www.blender.org
mtllib shard5.mtl
o defaultMaterial.003
v 3.045956 -0.440343 8.087812
v 3.048480 -0.372227 8.177297
v 3.048443 0.041859 8.503708
v 3.048443 0.103364 8.556265
v 3.048443 0.547337 8.776388
v 5.604594 -0.366978 6.805682
v 5.531231 -0.440343 6.805682
v 3.048443 0.547337 8.776388
v 3.048443 0.593242 8.763848
v 5.800467 0.088224 6.805682
v 5.754145 0.041859 6.805682
v 5.800030 0.546768 6.805682
v 5.800467 0.088224 6.805682
v 5.753664 0.593088 6.805682
v 5.800030 0.546768 6.805682
v 5.052980 1.375077 6.805682
v 5.531031 -0.440343 8.085257
v 5.558251 -0.372227 8.177297
v 3.048443 0.041859 8.351706
v 3.048480 -0.372227 8.177297
v 5.558251 -0.372227 8.177297
v 5.558251 0.041859 8.351706
v 5.604594 -0.373399 8.127867
v 5.740179 0.087710 8.556265
v 5.742054 0.547337 8.780330
v 3.049874 1.543831 8.335066
v 3.070907 1.375078 8.321922
v 3.180010 1.544467 8.331458
v 5.693949 0.593242 8.763848
v 5.558213 0.593267 8.655447
v 3.048443 0.592916 8.655447
v 3.048443 0.593242 8.763848
v 5.740607 0.041859 8.441725
v 5.787644 0.086589 8.503683
v 5.704247 0.041859 8.503708
v 5.742054 0.547337 8.780330
v 5.693949 0.593242 8.763848
v 5.787644 0.086589 8.503683
v 5.787585 0.547337 8.728072
v 3.070907 1.375078 8.321922
v 2.741455 5.391579 9.859954
v 5.558251 -0.372227 8.177297
v 5.604594 -0.373399 8.127867
v 5.604594 0.041859 8.301510
v 5.558251 0.041859 8.351706
v 3.229044 1.604537 8.304362
v 3.180010 1.544467 8.331458
v 4.502523 1.543335 8.331290
v 4.454409 1.605973 8.302160
v 3.364059 1.756604 8.071170
v 3.229044 1.604537 8.304362
v 4.454409 1.605973 8.302160
v 4.328875 1.756604 8.071170
v 5.787585 0.547337 8.728072
v 5.742501 0.593088 8.708325
v 5.559190 1.320897 9.025819
v 3.048458 1.319698 9.024952
v 3.048443 0.592916 8.655447
v 5.558213 0.593267 8.655447
v 5.389522 6.439907 5.662570
v 3.229044 1.604537 8.304362
v 3.364059 1.756604 8.071170
v 3.364060 4.629798 8.530334
v 3.226346 4.810352 8.843790
v 4.667575 1.375078 8.254360
v 4.600791 1.375078 8.306256
v 5.503470 1.375078 8.991325
v 5.559174 1.375078 8.955343
v 3.180010 1.544467 8.331458
v 3.178257 4.868028 8.889814
v 5.604594 1.326132 8.974228
v 5.559174 1.375078 8.955343
v 5.503470 1.375078 8.991325
v 5.559190 1.320897 9.025819
v 3.049874 1.543831 8.335066
v 2.818618 5.403711 9.792288
v 5.787585 0.547337 8.728072
v 5.742054 0.547337 8.780330
v 3.364059 1.756604 8.071170
v 4.328875 1.756604 8.071170
v 4.328857 4.255270 8.477498
v 4.003684 4.631057 8.527503
v 3.045956 -0.440343 8.087812
v 5.558213 0.593267 8.655447
v 5.604594 0.593088 8.604237
v 5.604594 1.326132 8.974228
v 5.559190 1.320897 9.025819
v 4.664454 4.481626 8.788476
v 4.667575 1.375078 8.254360
v 4.328857 4.255270 8.477498
v 4.328875 1.756604 8.071170
v 4.454409 1.605973 8.302160
v 4.459301 4.377371 8.781836
v 2.180767 6.034914 9.407651
v 4.600332 4.443252 8.830410
v 4.600791 1.375078 8.306256
v 4.667575 1.375078 8.254360
v 4.664454 4.481626 8.788476
v 4.502523 1.543335 8.331290
v 4.512671 4.398684 8.818235
v 4.502523 1.543335 8.331290
v 4.600791 1.375078 8.306256
v 4.600332 4.443252 8.830410
v 3.364060 4.629798 8.530334
v 3.079254 5.043931 8.932614
v 3.049874 1.543831 8.335066
v 2.196058 5.976399 9.493028
v 0.000000 5.996606 9.498853
v 0.000000 5.493863 9.856367
v 2.682523 5.492742 9.846415
v 2.276594 5.997654 9.431593
v 4.066638 4.813819 8.843651
v 3.226346 4.810352 8.843790
v 3.364060 4.629798 8.530334
v 4.003684 4.631057 8.527503
v 4.073720 4.871104 8.887052
v 3.178257 4.868028 8.889814
v 4.003684 4.631057 8.527503
v 4.328857 4.255270 8.477498
v 3.050108 5.122209 8.901809
v 4.075377 5.042847 8.930952
v 3.079254 5.043931 8.932614
v 3.050108 5.122209 8.901809
v 3.079254 5.043931 8.932614
v 4.075377 5.042847 8.930952
v 4.041360 5.123347 8.900077
v 3.048443 0.041859 8.351706
v 3.048443 0.041859 8.503708
v 4.664454 4.481626 8.788476
v 5.389522 6.439907 5.662570
v 5.347399 6.510314 5.757127
v 4.620257 4.589532 8.810915
v 2.773129 5.498138 9.786112
v 4.581195 4.512617 8.842949
v 4.840652 6.856349 6.192043
v 4.135072 5.084549 8.893497
v 4.581195 4.512617 8.842949
v 4.620257 4.589532 8.810915
v 4.746348 6.889185 6.224437
v 4.041360 5.123347 8.900077
v 2.818618 5.403711 9.792288
v 4.135072 5.084549 8.893497
v 5.604594 0.041859 6.805682
v 5.604594 -0.366978 6.805682
v 5.604594 0.041859 6.805682
v 5.754145 0.041859 6.805682
v 5.604594 0.593088 6.805682
v 5.753664 0.593088 6.805682
v 3.048457 1.375078 8.989904
v 3.048458 1.319698 9.024952
v 5.052980 1.375077 6.805682
v 5.558251 1.375077 6.805682
v 5.558251 1.375077 6.805682
v 5.604594 1.328735 6.805682
v 5.604594 -0.373399 8.127867
v 5.604594 0.041859 8.301510
v 5.604594 0.593088 6.805682
v 5.604594 1.328735 6.805682
v 5.604594 1.326132 8.974228
v 5.604594 0.593088 8.604237
v 5.531231 -0.440343 6.805682
v 5.531031 -0.440343 8.085257
v 3.070907 1.375078 8.321922
v 3.048457 1.375078 8.989904
v 5.740607 0.041859 8.441725
v 5.704247 0.041859 8.503708
v 5.558251 0.041859 8.351706
v 5.604594 0.041859 8.301510
v 5.604594 0.593088 8.604237
v 5.742501 0.593088 8.708325
v 5.604594 1.326132 8.974228
v 5.559174 1.375078 8.955343
v 5.604594 0.593088 8.604237
v 3.079254 5.043931 8.932614
vn -0.0000 -0.3882 0.9216
vn -0.0000 0.8376 0.5462
vn -0.0001 -0.4536 0.8912
vn 0.0001 -0.4532 0.8914
vn -0.0000 1.0000 -0.0000
vn 1.0000 -0.0000 -0.0000
vn -0.0000 -1.0000 -0.0000
vn 0.0051 -0.8006 0.5992
vn -0.0000 -0.7957 0.6057
vn 0.0007 -0.7956 0.6059
vn 0.2603 -0.8592 0.4405
vn 0.6860 -0.7275 0.0124
vn 0.6690 -0.7413 -0.0536
vn 0.6681 -0.7425 0.0485
vn -0.0019 -0.4412 0.8974
vn -0.0039 -0.4427 0.8967
vn 0.0596 -0.4971 0.8656
vn 0.0188 -0.4685 0.8833
vn -0.0005 1.0000 -0.0025
vn 0.0002 1.0000 -0.0014
vn -0.0000 1.0000 -0.0013
vn 0.0002 1.0000 -0.0027
vn 0.0097 -0.7060 0.7082
vn 0.6915 -0.7223 0.0141
vn 0.7285 -0.6459 0.2283
vn 0.0097 0.3113 0.9503
vn -0.0282 0.2893 0.9568
vn 0.0273 0.2909 0.9564
vn 0.0419 0.3425 0.9386
vn 1.0000 -0.0012 0.0070
vn 1.0000 0.0009 0.0045
vn 1.0000 -0.0014 0.0078
vn 0.7022 -0.2755 0.6565
vn 0.0008 0.4166 0.9091
vn 0.7055 0.7084 0.0203
vn 0.7052 0.7087 0.0218
vn 0.7188 0.6950 -0.0160
vn 0.7203 0.6933 0.0228
vn 0.8056 -0.0967 0.5845
vn 0.8229 -0.0926 0.5606
vn 0.8909 -0.0732 0.4483
vn 0.5983 -0.1325 0.7902
vn 0.0244 0.5503 0.8346
vn 0.7148 0.6990 0.0203
vn 0.0067 0.5400 0.8416
vn 0.9372 -0.0292 0.3475
vn 0.8515 -0.3616 0.3798
vn 0.9597 0.2729 -0.0671
vn 0.8660 -0.1226 0.4847
vn 0.7097 -0.3097 0.6328
vn -0.0025 -0.1577 0.9875
vn -0.0067 -0.1576 0.9875
vn -0.0076 -0.1576 0.9875
vn 0.7153 -0.3163 0.6231
vn 0.9737 0.0284 0.2259
vn 0.9704 -0.0177 0.2409
vn 0.9703 -0.0255 0.2406
vn 0.9720 0.0213 0.2340
vn -0.7902 -0.2249 0.5701
vn -0.9014 -0.0710 0.4272
vn -0.8257 -0.0934 0.5563
vn 0.6022 -0.1308 0.7876
vn 0.6030 -0.1344 0.7863
vn 0.9703 -0.0256 0.2406
vn -0.5761 -0.1369 0.8058
vn -0.1875 -0.1899 0.9637
vn -0.0236 -0.1411 0.9897
vn -0.0126 -0.1263 0.9919
vn -0.0436 -0.1684 0.9848
vn 0.0047 -0.1578 0.9875
vn 0.9511 -0.0422 0.3061
vn 0.9478 -0.0614 0.3130
vn 0.1108 0.3330 0.9364
vn 0.0077 0.6037 0.7972
vn 0.1245 0.5853 0.8012
vn 0.1505 0.7036 0.6944
vn 0.1723 0.1266 0.9769
vn 0.0037 -0.8660 0.5001
vn -0.2341 -0.7635 0.6019
vn 0.0038 -0.8040 0.5947
vn 0.0039 -0.8658 0.5004
vn -0.0473 -0.3103 0.9495
vn 0.0524 -0.2050 0.9774
vn -0.6169 -0.6131 0.4935
vn -0.0119 -0.2365 0.9716
vn 0.0392 -0.2021 0.9786
vn 0.0240 0.8249 0.5648
vn 0.0016 0.3626 0.9319
vn 0.0016 0.3627 0.9319
vn 0.1769 0.3048 0.9358
vn 0.5882 0.5887 0.5546
vn 0.2337 0.7146 0.6593
vn 0.7387 0.4587 0.4939
vn 0.9829 0.1798 0.0403
vn 0.9381 0.0903 0.3343
vn 0.7289 0.6815 0.0651
vn -0.0682 -0.2165 0.9739
vn 0.6620 0.5346 0.5254
vn 0.6360 0.4865 0.5990
vn 0.4111 0.1830 0.8930
vn 0.0241 0.8249 0.5648
vn 0.0387 0.8296 0.5570
vn 0.6620 0.5346 0.5253
vn -0.0130 -0.0954 0.9954
vn 0.0436 -0.0775 0.9960
vn -0.0001 0.5350 0.8448
vn -0.0008 0.5351 0.8448
vn 0.7148 0.6990 0.0202
vn 0.7148 0.6991 0.0203
vn 0.7264 0.6868 -0.0258
vn 0.7250 0.6883 0.0262
vn -0.0009 1.0000 -0.0012
vn -0.0016 1.0000 0.0013
vn 0.0001 1.0000 -0.0001
vn 0.6989 -0.7151 0.0158
vn 0.7012 -0.7130 -0.0064
vn -0.0486 -0.6870 0.7251
vn 0.0854 -0.1475 0.9854
vn -0.0159 -0.1528 0.9881
vn 0.9510 -0.0422 0.3061
vn 0.8803 0.4225 0.2158
vt 0.372587 0.976728
vt 0.312916 0.976728
vt 0.312916 0.984023
vt 0.372587 0.984023
vt 0.261908 0.366350
vt 0.240478 0.366350
vt 0.237480 0.369728
vt 0.264696 0.369696
vt 0.021097 0.387782
vt 0.021130 0.403348
vt 0.070437 0.403243
vt 0.070404 0.387678
vt 0.020974 0.404741
vt 0.038560 0.419091
vt 0.039875 0.418065
vt 0.023080 0.404596
vt 0.374375 0.976728
vt 0.374375 0.984023
vt 0.404900 0.984023
vt 0.404900 0.976728
vt 0.005566 0.412233
vt 0.005582 0.447715
vt 0.020095 0.447709
vt 0.020025 0.404927
vt 0.480731 0.404184
vt 0.480731 0.379273
vt 0.431873 0.379273
vt 0.373420 0.971998
vt 0.370706 0.968917
vt 0.367553 0.968917
vt 0.366447 0.971998
vt 0.368659 0.958063
vt 0.406107 0.958063
vt 0.406610 0.954602
vt 0.368622 0.954636
vt 0.070455 0.404509
vt 0.070056 0.417691
vt 0.404753 0.971998
vt 0.405180 0.968917
vt 0.310247 0.968917
vt 0.310246 0.971998
vt 0.312916 0.985851
vt 0.378007 0.985851
vt 0.404900 0.985851
vt 0.367818 0.958935
vt 0.310247 0.958935
vt 0.310247 0.967541
vt 0.367818 0.967541
vt 0.310249 0.958063
vt 0.366862 0.958063
vt 0.364157 0.955170
vt 0.310251 0.955169
vt 0.369429 0.967541
vt 0.369429 0.958935
vt 0.405606 0.967541
vt 0.405606 0.958935
vt 0.236391 0.371062
vt 0.265765 0.371087
vt 0.237420 0.298524
vt 0.240478 0.302534
vt 0.236351 0.297243
vt 0.019856 0.403351
vt 0.019858 0.404613
vt 0.160928 0.301529
vt 0.158917 0.301313
vt 0.170464 0.384273
vt 0.170458 0.381172
vt 0.254685 0.302506
vt 0.261907 0.310853
vt 0.019822 0.387785
vt 0.218285 0.093579
vt 0.155903 0.132660
vt 0.166562 0.194656
vt 0.195473 0.194656
vt 0.264805 0.308141
vt 0.269361 0.305825
vt 0.267937 0.306678
vt 0.267947 0.374824
vt 0.269431 0.374824
vt 0.265990 0.307667
vt 0.170324 0.313265
vt 0.157508 0.299297
vt 0.148181 0.287405
vt 0.105942 0.287405
vt 0.105942 0.299297
vt 0.256083 0.298447
vt 0.256241 0.297175
vt 0.256277 0.293360
vt 0.233826 0.293336
vt 0.255522 0.291572
vt 0.233505 0.291597
vt 0.149957 0.286119
vt 0.148181 0.285387
vt 0.538883 0.675122
vt 0.541139 0.675122
vt 0.541144 0.602838
vt 0.538888 0.602838
vt 0.159313 0.298153
vt 0.267512 0.305137
vt 0.524651 0.675121
vt 0.524656 0.602837
vt 0.268380 0.303428
vt 0.523039 0.675121
vt 0.523044 0.602837
vt 0.160854 0.299345
vt 0.257603 0.292434
vt 0.233826 0.374824
vt 0.021022 0.447149
vt 0.031017 0.447687
vt 0.365153 0.954069
vt 0.233826 0.371076
vt 0.176088 0.286531
vt 0.174960 0.286056
s 0
usemtl spaceship
f 22/1/1 19/2/1 20/3/1
f 20/3/1 21/4/1 22/1/1
f 53/5/2 50/6/2 51/7/2
f 51/7/2 52/8/2 53/5/2
f 59/9/3 56/10/3 57/11/3
f 57/11/4 58/12/4 59/9/4
f 68/13/5 65/14/5 66/15/5
f 66/15/5 67/16/5 68/13/5
f 156/17/6 155/18/6 144/19/6
f 144/19/6 143/20/6 156/17/6
f 160/21/6 157/22/6 158/23/6
f 158/23/6 159/24/6 160/21/6
f 161/25/7 162/26/7 83/27/7
f 168/28/7 165/29/7 166/30/7
f 166/30/7 167/31/7 168/28/7
f 170/32/5 148/33/5 147/34/5
f 147/34/5 169/35/5 170/32/5
f 164/36/5 67/16/5 66/15/5
f 66/15/5 163/37/5 164/36/5
f 168/28/7 145/38/7 146/39/7
f 146/39/7 165/29/7 168/28/7
f 128/40/7 127/41/7 167/31/7
f 167/31/7 166/30/7 128/40/7
s 1
f 18/4/8 2/3/9 1/42/10
f 1/42/10 17/43/11 18/4/8
f 23/18/12 17/43/11 7/44/13
f 7/44/13 6/19/14 23/18/12
f 25/45/15 5/46/16 4/47/17
f 4/47/17 24/48/18 25/45/15
f 32/49/19 29/50/20 30/51/21
f 30/51/21 31/52/22 32/49/19
f 35/30/23 33/29/24 34/53/25
f 34/53/25 24/48/18 35/30/23
f 18/4/8 17/43/11 23/18/12
f 37/50/26 9/49/27 8/46/28
f 8/46/28 36/45/29 37/50/26
f 39/54/30 38/53/30 13/55/31
f 13/55/31 12/56/32 39/54/30
f 45/1/33 42/4/33 43/18/33
f 43/18/33 44/17/33 45/1/33
f 49/8/34 46/7/34 47/57/34
f 47/57/34 48/58/34 49/8/34
f 55/32/35 54/54/36 15/56/37
f 15/56/37 14/33/38 55/32/35
f 64/59/39 61/7/40 62/6/41
f 62/6/41 63/60/41 64/59/39
f 70/61/42 69/57/42 61/7/40
f 61/7/40 64/59/39 70/61/42
f 74/10/43 71/62/44 72/63/44
f 72/63/44 73/16/45 74/10/43
f 76/64/46 41/65/47 40/66/48
f 40/66/48 75/67/49 76/64/46
f 78/45/50 24/48/18 34/53/25
f 34/53/25 77/54/50 78/45/50
f 82/68/51 79/6/52 80/5/53
f 80/5/53 81/69/53 82/68/51
f 87/10/54 84/9/54 85/70/54
f 85/70/54 86/62/54 87/10/54
f 60/71/55 88/72/56 89/73/57
f 89/73/57 16/74/58 60/71/55
f 93/75/59 90/69/60 91/5/60
f 91/5/60 92/8/61 93/75/59
f 98/76/56 95/77/62 96/78/63
f 96/78/63 97/79/64 98/76/56
f 93/75/59 92/8/61 99/58/65
f 99/58/65 100/80/66 93/75/59
f 100/80/66 101/58/67 102/78/68
f 102/78/68 103/77/69 100/80/66
f 82/68/51 104/60/70 79/6/52
f 105/81/71 76/64/46 106/67/72
f 110/82/73 107/83/74 108/84/75
f 41/65/76 110/82/73 109/85/77
f 115/68/78 112/86/79 113/59/80
f 113/59/80 114/60/81 115/68/78
f 112/86/79 116/87/82 117/61/83
f 117/61/83 113/59/80 112/86/79
f 112/86/79 118/68/84 119/69/84
f 119/69/84 93/75/59 112/86/79
f 116/87/82 121/88/85 122/89/86
f 122/89/86 117/61/83 116/87/82
f 126/90/87 123/91/88 124/89/89
f 124/89/89 125/88/90 126/90/87
f 107/83/74 111/92/91 94/93/92
f 132/94/93 129/95/56 130/96/94
f 130/96/94 131/97/95 132/94/93
f 116/87/82 112/86/79 93/75/59
f 93/75/59 100/80/66 116/87/82
f 133/98/96 111/92/91 107/83/74
f 107/83/74 110/82/73 133/98/96
f 121/88/85 116/87/82 100/80/66
f 100/80/66 134/99/97 121/88/85
f 136/100/98 132/94/93 131/97/95
f 131/97/95 135/101/99 136/100/98
f 100/80/66 103/77/69 134/99/97
f 138/102/93 137/99/100 95/77/62
f 95/77/62 98/76/56 138/102/93
f 140/103/101 136/100/98 135/101/99
f 135/101/99 139/104/102 140/103/101
f 110/82/73 41/65/76 141/105/46
f 141/105/46 133/98/96 110/82/73
f 125/88/90 137/99/100 138/102/93
f 138/102/93 142/106/103 125/88/90
f 142/106/103 126/90/87 125/88/90
f 27/107/104 102/78/68 101/58/67
f 101/58/67 28/57/105 27/107/104
f 150/11/106 74/10/43 73/16/45
f 73/16/45 149/36/107 150/11/106
f 172/13/108 171/24/109 154/23/110
f 154/23/110 153/108/111 172/13/108
f 151/109/112 65/14/5 68/13/5
f 68/13/5 152/108/113 151/109/112
f 36/45/29 54/54/36 55/32/35
f 55/32/35 37/50/26 36/45/29
f 170/32/114 173/110/5 30/51/21
f 30/51/21 29/50/20 170/32/114
f 10/55/115 34/53/25 33/29/24
f 33/29/24 11/39/116 10/55/115
f 24/48/18 4/47/17 3/40/117
f 3/40/117 35/30/23 24/48/18
f 122/89/86 26/111/118 28/57/119
f 28/57/119 117/61/83 122/89/86
f 174/112/120 120/113/121 133/98/96
f 133/98/96 141/105/46 174/112/120
f 120/113/121 111/92/91 133/98/96
