# Blender 4.0.1
# www.blender.org
mtllib shard15.mtl
o defaultMaterial.013
v 5.392438 6.691567 -7.356939
v 7.556434 4.016456 -5.013162
v 5.392438 6.691567 -7.356939
v 7.556413 4.708797 -3.772072
v 7.552590 5.540270 -6.144464
v 7.550979 6.034190 -6.214922
v 7.684941 4.013440 -5.007109
v 7.556434 4.016456 -5.013162
v 7.557510 4.389151 -3.873720
v 7.677210 4.388693 -3.873275
v 7.557510 4.389151 -3.873720
v 7.556413 4.762560 -3.487752
v 7.556499 4.738491 -3.505389
v 7.514431 6.156259 -6.233013
v 7.080555 6.705205 -6.301672
v 7.196560 6.643864 -6.306243
v 5.362325 10.074964 -7.786422
v 5.392179 10.497685 2.311379
v 5.392417 9.577787 -7.696338
v 5.392438 9.959530 -7.825271
v 4.993211 10.770120 -7.150784
v 7.550869 6.035479 1.999485
v 7.552308 5.540271 2.151779
v 7.676472 4.421783 -3.773295
v 7.557604 4.421783 -3.772072
v 7.557604 4.421783 -3.772072
v 7.676472 4.473777 -3.480341
v 7.557604 4.473777 -3.480341
v 7.557604 4.473777 -3.480341
v 7.557604 4.421783 -3.772072
v 7.556413 4.708797 -3.772072
v 7.556499 4.738491 -3.505389
v 4.888625 10.851418 -7.062658
v 7.712324 4.800065 -3.833128
v 7.709140 4.725718 -3.820843
v 7.677116 4.729227 -3.787416
v 7.682592 4.804751 -3.808268
v 7.556499 4.738491 -3.505389
v 7.682363 4.735590 -3.505958
v 7.676472 4.473777 -3.480341
v 7.557604 4.473777 -3.480341
v 7.683239 4.759115 -3.487521
v 7.556413 4.762560 -3.487752
v 7.556413 4.786290 -3.360293
v 7.685929 4.779111 -3.355787
v 7.712324 4.800065 -3.833128
v 7.682592 4.804751 -3.808268
v 7.717159 4.835557 -3.807013
v 7.676472 4.473777 -3.480341
v 7.713514 4.736256 -3.498015
v 7.556413 4.786289 -1.578269
v 7.685926 4.779073 -1.583054
v 7.685929 4.779111 -3.355787
v 7.556413 4.786290 -3.360293
v 7.685926 4.779073 -1.583054
v 7.683437 4.861748 -1.502180
v 7.683073 4.862085 -3.433919
v 7.685929 4.779111 -3.355787
v 7.683437 4.861748 -1.502180
v 7.714880 4.892643 -1.500351
v 7.714677 4.892757 -3.435669
v 7.514894 6.157440 1.970531
v 7.085816 6.708740 1.852295
v 7.196490 6.648603 1.865420
v 7.685952 4.577678 -0.342850
v 7.556413 4.584069 -0.330557
v 7.685791 4.006122 0.057140
v 7.556413 4.009229 0.071691
v 7.685952 4.577678 -0.342850
v 7.683134 4.643666 -0.164599
v 7.685791 4.006122 0.057140
v 7.682786 4.039324 0.258358
v 5.358789 11.118879 2.436017
v 5.392438 11.007616 2.427700
v 5.392438 9.959530 -7.825271
v 7.683134 4.643666 -0.164599
v 7.715087 4.672421 -0.148054
v 7.682786 4.039324 0.258358
v 7.715010 4.048918 0.288278
v 4.988089 11.655686 2.568308
v 7.683134 4.643666 -0.164599
v 7.715087 4.672421 -0.148054
v 7.556413 4.584069 -0.330557
v 5.392438 6.708666 1.833986
v 7.682592 4.804751 -3.808268
v 7.717159 4.835557 -3.807013
v 5.392438 6.708666 1.833986
v 7.556413 4.786289 -1.578269
v 7.556413 4.786290 -3.360293
v 7.706847 4.710287 -3.799512
v 7.677116 4.729227 -3.787416
v 7.709140 4.725718 -3.820843
v 7.713514 4.736256 -3.498015
v 7.706847 4.710287 -3.799512
v 7.683239 4.759115 -3.487521
v 7.677116 4.729227 -3.787416
v 7.683239 4.759115 -3.487521
v 7.556499 4.738491 -3.505389
v 7.556413 4.762560 -3.487752
v 7.683239 4.759115 -3.487521
v 7.682363 4.735590 -3.505958
v 7.713514 4.736256 -3.498015
v 7.682363 4.735590 -3.505958
v 7.683239 4.759115 -3.487521
v 7.682363 4.735590 -3.505958
v 7.677116 4.729227 -3.787416
vn 1.0000 0.0041 -0.0007
vn 1.0000 0.0041 -0.0008
vn -0.6001 -0.6161 -0.5102
vn 0.1852 0.6019 -0.7768
vn -0.0088 0.9510 -0.3090
vn 0.0286 0.9502 -0.3104
vn 0.0215 0.9497 -0.3124
vn 0.0199 0.9498 -0.3122
vn 1.0000 0.0041 -0.0032
vn 1.0000 0.0039 -0.0019
vn 1.0000 0.0042 -0.0023
vn 1.0000 0.0029 -0.0009
vn 0.9953 0.0202 0.0945
vn 0.9999 0.0110 -0.0110
vn 0.9999 0.0116 -0.0118
vn 0.9885 -0.1459 -0.0388
vn 1.0000 0.0006 0.0004
vn 0.9987 0.0499 -0.0090
vn 0.9959 0.0631 0.0645
vn 0.9988 0.0485 0.0032
vn 1.0000 -0.0009 0.0089
vn -0.0004 0.9775 -0.2107
vn -0.0434 0.9705 -0.2372
vn -0.0008 0.9846 -0.1750
vn -0.0000 0.9817 -0.1905
vn -0.6898 -0.1181 -0.7143
vn -0.6898 -0.1180 -0.7143
vn -0.6899 -0.1181 -0.7142
vn -0.0034 -0.0958 -0.9954
vn -0.0035 -0.0957 -0.9954
vn 0.0442 0.9850 -0.1669
vn 0.0439 0.9850 -0.1666
vn 0.0437 0.9851 -0.1664
vn 0.0439 0.9850 -0.1667
vn 0.0489 0.5839 -0.8104
vn -0.4765 0.5622 -0.6759
vn 0.0508 0.5836 -0.8104
vn 0.0554 0.9985 -0.0000
vn 0.0586 0.9959 0.0682
vn 0.0585 0.9962 0.0649
vn 0.0553 0.9985 -0.0000
vn -0.9995 -0.0319 0.0005
vn -0.9995 -0.0311 -0.0011
vn -0.9996 -0.0291 -0.0031
vn -0.9225 0.3858 -0.0093
vn -0.6996 0.7129 0.0485
vn -0.6996 0.7130 0.0473
vn 0.0200 0.9995 -0.0250
vn 0.9099 0.3904 0.1400
vn 0.8704 0.4924 0.0050
vn 0.1478 0.9621 0.2290
vn 0.0306 0.9995 0.0024
vn 0.7939 0.6080 0.0035
vn 0.7053 0.6932 0.1486
vn 0.0845 0.8961 0.4358
vn 0.0829 0.9065 0.4140
vn -0.9999 -0.0129 -0.0110
vn -0.9997 -0.0211 -0.0076
vn 0.9413 0.2319 -0.2455
vn 0.9987 0.0505 -0.0045
vn 0.9979 0.0596 0.0250
vn -0.6982 0.7066 0.1151
vn 0.8580 0.4975 -0.1281
vn 0.8188 0.5546 0.1484
vn 0.9480 0.3027 -0.0978
vn 0.1187 0.5682 0.8143
vn 0.0915 0.5711 0.8158
vn -0.9999 -0.0086 -0.0132
vn -0.9999 -0.0085 -0.0136
vn -0.6833 0.4188 0.5981
vn -0.6742 0.4218 0.6063
vn -0.6890 0.4174 0.5925
vn 0.5631 0.8162 -0.1292
vn 0.5233 0.8400 0.1435
vn 0.4096 0.9077 -0.0908
vn 1.0000 0.0015 -0.0019
vn 0.9907 0.1311 0.0351
vn 0.0197 0.9879 -0.1539
vn -0.9514 0.3053 -0.0404
vn -0.0060 1.0000 0.0030
vn -0.0037 1.0000 0.0028
vn 1.0000 0.0030 0.0005
vn 1.0000 0.0050 0.0001
vn 1.0000 0.0048 -0.0001
vn -0.5064 -0.8153 0.2807
vn -0.5326 -0.8284 -0.1735
vn -0.5465 -0.8327 0.0890
vn -0.9997 0.0250 0.0075
vn 0.0141 0.6038 -0.7970
vn 0.9999 0.0115 -0.0118
vn 0.9999 0.0109 -0.0110
vn 0.2643 -0.1553 -0.9519
vn 0.2479 -0.0999 -0.9636
vn 0.1328 -0.1171 -0.9842
vn -0.9996 0.0286 0.0061
vt 0.728395 0.313556
vt 0.728395 0.320994
vt 0.733525 0.320994
vt 0.733388 0.313556
vt 0.659961 0.566998
vt 0.660637 0.567030
vt 0.659922 0.566477
vt 0.661025 0.573063
vt 0.661317 0.573345
vt 0.661782 0.572885
vt 0.661311 0.586608
vt 0.661300 0.610356
vt 0.663686 0.610375
vt 0.663697 0.586610
vt 0.756551 0.320994
vt 0.735380 0.320994
vt 0.775486 0.297568
vt 0.728395 0.312465
vt 0.285164 0.012600
vt 0.484883 0.030958
vt 0.483279 0.023340
vt 0.776262 0.288214
vt 0.628936 0.288214
vt 0.626146 0.297568
vt 0.663698 0.584545
vt 0.661312 0.584500
vt 0.663700 0.578827
vt 0.661315 0.578501
vt 0.805261 0.738086
vt 0.805260 0.737353
vt 0.663702 0.573886
vt 0.803189 0.748415
vt 0.803186 0.746087
vt 0.799986 0.746091
vt 0.799988 0.748419
vt 0.806761 0.738085
vt 0.800023 0.779759
vt 0.803223 0.779756
vt 0.805306 0.778729
vt 0.805268 0.744603
vt 0.806805 0.778728
vt 0.806768 0.744601
vt 0.776262 0.285752
vt 0.628936 0.285752
vt 0.777546 0.272050
vt 0.630959 0.272050
vt 0.630959 0.274538
vt 0.777546 0.274538
vt 0.800048 0.802389
vt 0.803248 0.802386
vt 0.805332 0.802383
vt 0.541146 0.477168
vt 0.541146 0.272499
vt 0.538891 0.272499
vt 0.806832 0.802382
vt 0.538891 0.477168
vt 0.524658 0.287226
vt 0.800060 0.814018
vt 0.803260 0.814014
vt 0.805344 0.814012
vt 0.806844 0.814010
vt 0.524658 0.477168
vt 0.523046 0.289000
vt 0.294691 0.088216
vt 0.478110 0.088557
vt 0.798673 0.244423
vt 0.630972 0.244555
vt 0.671435 0.316787
vt 0.693865 0.312643
vt 0.725935 0.312081
vt 0.663703 0.573326
s 0
usemtl spaceship
f 32/1/1 29/2/1 30/3/1
f 30/3/2 31/4/2 32/1/2
f 90/5/3 91/6/3 92/7/3
f 102/8/4 103/9/4 104/10/4
s 1
f 10/11/5 7/12/6 8/13/7
f 8/13/7 9/14/8 10/11/5
f 2/15/9 4/4/10 11/16/11
f 4/4/12 5/17/13 12/18/14
f 12/18/14 13/1/15 4/4/12
f 18/19/16 19/20/17 20/21/18
f 6/22/19 22/23/20 23/24/21
f 23/24/21 5/17/13 6/22/19
f 25/25/22 24/26/23 10/11/5
f 10/11/5 9/14/8 25/25/22
f 11/16/11 4/4/10 26/3/11
f 28/27/24 27/28/25 24/26/23
f 24/26/23 25/25/22 28/27/24
f 37/29/26 34/30/27 35/30/26
f 35/30/26 36/29/28 37/29/26
f 41/27/29 38/31/29 39/9/30
f 39/9/30 40/28/30 41/27/29
f 45/32/31 42/33/32 43/34/33
f 43/34/33 44/35/34 45/32/31
f 46/30/35 47/29/36 48/36/37
f 54/35/38 51/37/39 52/38/40
f 52/38/40 53/32/41 54/35/38
f 58/32/42 55/38/43 56/39/44
f 56/39/44 57/40/45 58/32/42
f 57/40/45 59/39/46 60/41/47
f 60/41/47 61/42/48 57/40/45
f 14/43/49 62/44/50 22/23/20
f 22/23/20 6/22/19 14/43/49
f 15/45/51 63/46/52 64/47/53
f 64/47/53 16/48/54 15/45/51
f 16/48/54 64/47/53 62/44/50
f 62/44/50 14/43/49 16/48/54
f 66/49/55 65/50/56 52/38/40
f 52/38/40 51/37/39 66/49/55
f 70/51/57 56/39/44 55/38/43
f 55/38/43 69/50/58 70/51/57
f 74/52/59 75/53/60 17/54/61
f 77/55/62 60/41/47 59/39/46
f 59/39/46 76/51/62 77/55/62
f 73/56/63 17/54/64 21/57/65
f 65/50/56 66/49/55 68/58/66
f 68/58/66 67/59/67 65/50/56
f 72/60/68 70/51/57 69/50/58
f 69/50/58 71/59/69 72/60/68
f 82/55/70 81/51/70 78/60/71
f 78/60/71 79/61/72 82/55/70
f 80/62/73 21/57/74 33/63/75
f 19/20/17 18/19/16 84/64/76
f 84/64/76 1/65/77 19/20/17
f 86/36/78 85/29/79 57/40/45
f 57/40/45 61/42/48 86/36/78
f 3/66/80 87/67/81 63/46/52
f 63/46/52 15/45/51 3/66/80
f 83/68/82 88/69/83 23/24/21
f 5/17/13 89/70/84 12/18/14
f 5/17/13 23/24/21 88/69/83
f 88/69/83 89/70/84 5/17/13
f 94/5/85 93/8/86 95/10/87
f 95/10/87 96/6/87 94/5/85
f 97/33/88 58/32/42 57/40/45
f 101/9/89 98/31/90 99/71/91
f 99/71/91 100/10/89 101/9/89
f 49/28/92 105/9/93 50/8/94
f 106/29/95 97/33/88 57/40/45
f 57/40/45 85/29/79 106/29/95
