# Blender 4.0.1
# www.blender.org
mtllib joystick.mtl
o c
v -0.000141 0.024826 -0.004840
v 0.000141 0.024826 -0.004840
v -0.000137 0.025202 -0.004676
v 0.000137 0.025202 -0.004676
v -0.000141 0.025576 -0.004683
v 0.000141 0.025576 -0.004683
v -0.000141 0.025951 -0.004720
v 0.000141 0.025951 -0.004720
v -0.000139 0.026325 -0.004819
v 0.000139 0.026325 -0.004819
v -0.000141 0.026701 -0.004720
v 0.000141 0.026701 -0.004720
v -0.000217 0.027172 -0.005014
v 0.000217 0.027172 -0.005014
v -0.000217 0.027100 -0.005275
v 0.000217 0.027100 -0.005275
v -0.000141 0.026701 -0.005265
v 0.000141 0.026701 -0.005265
v -0.000137 0.026325 -0.005327
v 0.000137 0.026325 -0.005327
v -0.000141 0.025951 -0.005256
v 0.000141 0.025951 -0.005256
v -0.000141 0.025576 -0.005236
v 0.000141 0.025576 -0.005236
v -0.000141 0.025201 -0.005319
v 0.000141 0.025201 -0.005319
v -0.000141 0.024826 -0.005360
v 0.000141 0.024826 -0.005360
v -0.000217 0.027013 -0.005580
v 0.000217 0.027013 -0.005580
v 0.000215 0.026869 -0.005578
v -0.000215 0.026869 -0.005578
v -0.000216 0.026668 -0.004588
v 0.000216 0.026668 -0.004588
v 0.000212 0.026996 -0.004491
v -0.000212 0.026996 -0.004491
v -0.000139 0.026527 -0.004804
v 0.000139 0.026527 -0.004804
v 0.000137 0.026526 -0.005324
v -0.000137 0.026526 -0.005324
v -0.000141 0.026135 -0.004768
v 0.000141 0.026135 -0.004768
v 0.000141 0.026135 -0.005282
v -0.000141 0.026135 -0.005282
v -0.000141 0.025772 -0.004696
v 0.000141 0.025772 -0.004696
v 0.000141 0.025772 -0.005240
v -0.000141 0.025772 -0.005240
v -0.000141 0.025398 -0.004667
v 0.000141 0.025398 -0.004667
v 0.000141 0.025398 -0.005249
v -0.000141 0.025398 -0.005249
v -0.000137 0.024992 -0.004731
v 0.000137 0.024992 -0.004731
v 0.000137 0.024985 -0.005354
v -0.000137 0.024985 -0.005354
v 0.000212 0.026703 -0.005262
v 0.000217 0.026701 -0.004720
v -0.000212 0.026703 -0.005262
v -0.000217 0.026701 -0.004720
v -0.000000 0.025772 -0.005242
v 0.000000 0.026528 -0.005326
v 0.000000 0.025772 -0.004697
vn 0.8995 -0.0746 0.4306
vn -0.8832 -0.1872 0.4301
vn 0.8832 -0.1872 0.4301
vn 0.8504 0.0433 0.5244
vn -0.0000 0.1290 0.9916
vn -0.8505 0.0433 0.5242
vn 0.9914 0.0129 0.1306
vn 0.8215 0.1191 0.5577
vn -0.0000 0.1400 0.9902
vn 0.8967 0.0474 0.4401
vn -0.8228 0.1353 0.5520
vn 0.8228 0.1353 0.5520
vn 0.8950 -0.1200 0.4296
vn -0.4471 -0.8692 0.2111
vn -0.8950 -0.1200 0.4296
vn 0.3956 0.5927 0.7016
vn -0.6309 -0.3773 0.6780
vn 0.6309 -0.3773 0.6780
vn 0.6561 0.7432 0.1310
vn -0.0679 0.9778 -0.1984
vn -0.6561 0.7432 0.1310
vn 0.0062 -0.7151 -0.6990
vn -0.0184 -0.1437 -0.9895
vn 0.0184 -0.1437 -0.9895
vn -0.5654 -0.7268 -0.3899
vn 0.5654 -0.7268 -0.3899
vn -0.0000 0.0262 -0.9997
vn 0.7921 -0.0770 -0.6056
vn -0.7982 -0.1247 -0.5894
vn -0.7937 -0.0767 -0.6035
vn 0.8389 -0.0649 -0.5403
vn 0.9921 -0.0066 -0.1252
vn -0.0000 -0.0458 -0.9989
vn 0.8619 0.0167 -0.5068
vn -0.8692 0.0938 -0.4854
vn -0.8611 0.0167 -0.5081
vn 0.8976 0.0513 -0.4378
vn -0.9003 0.1008 -0.4234
vn 0.9003 0.1008 -0.4234
vn -0.5200 -0.8167 -0.2502
vn 0.5785 -0.7888 0.2079
vn -0.5785 -0.7888 0.2079
vn 0.8837 -0.1831 0.4308
vn 0.9004 0.0968 -0.4241
vn 0.8983 -0.0686 0.4341
vn 0.8495 0.0436 0.5257
vn 0.8750 0.0765 -0.4780
vn 0.8561 0.0181 -0.5165
vn 0.8214 0.1191 0.5577
vn 0.9921 -0.0067 -0.1252
vn 0.8966 0.0448 0.4406
vn 0.7834 -0.0770 -0.6167
vn 0.8038 -0.0765 -0.5899
vn 0.8951 -0.1180 0.4300
vn 0.5643 -0.7276 -0.3901
vn 0.4482 -0.8685 0.2118
vn 0.6559 0.7432 0.1324
vn 0.9627 -0.2656 -0.0514
vn 0.9942 0.1042 -0.0280
vn -0.8837 -0.1831 0.4308
vn -0.9004 0.0968 -0.4241
vn -0.8962 0.0451 -0.4414
vn -0.8495 0.0436 0.5257
vn -0.8750 0.0765 -0.4780
vn -0.8494 0.0115 0.5276
vn -0.8214 0.1191 0.5577
vn -0.9921 -0.0067 -0.1252
vn -0.9914 0.0129 0.1306
vn -0.8966 0.0448 0.4406
vn -0.7834 -0.0770 -0.6167
vn -0.8216 0.1316 0.5546
vn -0.5643 -0.7276 -0.3901
vn -0.8951 -0.1180 0.4300
vn -0.4482 -0.8685 0.2118
vn -0.6559 0.7432 0.1324
vn -0.9627 -0.2656 -0.0514
vn -0.9894 -0.1454 -0.0035
vn 0.0649 0.9476 -0.3128
vn -0.1024 0.9732 -0.2057
vn 0.1024 0.9733 -0.2057
vn 0.9568 -0.2140 -0.1970
vn 0.9933 0.1096 -0.0375
vn 0.9632 -0.2637 -0.0527
vn 0.5655 -0.7268 -0.3898
vn -0.0062 -0.7151 -0.6990
vn -0.9568 -0.2140 -0.1970
vn -0.9933 0.1096 -0.0375
vn -0.9635 0.2102 -0.1656
vn 0.6308 -0.3773 0.6780
vn 0.4471 -0.8692 0.2111
vn 0.3956 0.5928 0.7015
vn 0.9890 -0.1480 0.0005
vn 0.6560 0.7433 0.1308
vn 0.3956 0.5927 0.7015
vn -0.3956 0.5927 0.7015
vn -0.3956 0.5928 0.7015
vn -0.9890 -0.1480 0.0005
vn -0.6302 -0.3776 0.6784
vn 0.8950 -0.1199 0.4296
vn -0.8967 0.0474 0.4401
vn 0.8966 0.0481 0.4403
vn 0.9890 0.0182 -0.1467
vn 0.8948 -0.1185 0.4305
vn 0.9890 0.0190 -0.1464
vn 0.8054 -0.0802 -0.5872
vn -0.8966 0.0481 0.4403
vn -0.9890 0.0182 -0.1467
vn -0.8046 -0.0816 -0.5882
vn 0.8144 0.1180 0.5682
vn -0.8301 0.1555 0.5355
vn -0.8153 0.1178 0.5669
vn 0.7834 -0.0792 -0.6164
vn 0.8418 -0.0632 -0.5361
vn -0.0000 -0.0077 -1.0000
vn -0.8423 -0.0631 -0.5354
vn -0.8389 -0.0649 -0.5403
vn 0.8561 0.0182 -0.5165
vn -0.0000 -0.0458 -0.9990
vn -0.8561 0.0181 -0.5165
vn 0.8995 -0.0748 0.4306
vn -0.8995 -0.0748 0.4306
vn 0.8994 -0.0792 0.4298
vn 0.8750 0.0806 -0.4774
vn 0.8519 0.0046 0.5237
vn 0.8750 0.0764 -0.4780
vn -0.8750 0.0764 -0.4780
vn -0.8994 -0.0792 0.4298
vn -0.8750 0.0806 -0.4774
vn -0.9012 0.1070 -0.4199
vn -0.8832 -0.1873 0.4300
vn 0.5785 -0.7888 0.2078
vn 0.8832 -0.1873 0.4300
vn 0.8976 0.0515 -0.4378
vn 0.5782 -0.7890 0.2078
vn 0.5205 -0.8164 -0.2502
vn 0.5200 -0.8167 -0.2502
vn -0.8976 0.0513 -0.4378
vn -0.5782 -0.7890 0.2078
vn -0.8976 0.0515 -0.4378
vn -0.5205 -0.8164 -0.2502
vn 0.9662 -0.2528 -0.0514
vn 0.4409 -0.8725 0.2107
vn 0.5717 -0.7232 -0.3875
vn 0.9569 -0.2130 -0.1975
vn 0.9628 -0.2652 -0.0517
vn 0.5655 -0.7268 -0.3899
vn 0.9890 -0.1478 0.0004
vn 0.6309 -0.3773 0.6779
vn -0.4409 -0.8725 0.2107
vn -0.9662 -0.2528 -0.0514
vn -0.5717 -0.7232 -0.3875
vn -0.5655 -0.7268 -0.3899
vn -0.9628 -0.2652 -0.0517
vn -0.6309 -0.3773 0.6779
vn -0.9890 -0.1478 0.0004
vn -0.8561 0.0182 -0.5165
vn -0.9921 -0.0066 -0.1252
vn -0.8390 -0.0649 -0.5403
vn -0.8054 -0.0802 -0.5872
vn -0.9890 0.0190 -0.1464
vn -0.8215 0.1191 0.5577
vn 0.9890 0.0191 -0.1465
vn -0.9890 0.0191 -0.1465
vn -0.8995 -0.0746 0.4306
vn -0.8484 0.0148 0.5291
vn 0.8484 0.0148 0.5292
vn -0.3956 0.5927 0.7016
vn 0.0679 0.9778 -0.1984
vn -0.0000 0.2015 -0.9795
vn 0.7982 -0.1247 -0.5894
vn -0.0000 -0.1076 -0.9942
vn 0.8692 0.0938 -0.4854
vn 0.8962 0.0451 -0.4414
vn 0.8494 0.0115 0.5276
vn 0.8216 0.1316 0.5546
vn 0.9889 0.0158 -0.1480
vn 0.9894 -0.1454 -0.0035
vn -0.8983 -0.0686 0.4341
vn -0.8038 -0.0765 -0.5899
vn -0.9889 0.0158 -0.1480
vn -0.9942 0.1042 -0.0280
vn -0.0649 0.9476 -0.3128
vn 0.9635 0.2102 -0.1656
vn -0.5655 -0.7268 -0.3898
vn -0.9632 -0.2637 -0.0527
vn -0.6308 -0.3773 0.6780
vn 0.6302 -0.3776 0.6784
vn -0.6560 0.7433 0.1308
vn -0.8950 -0.1199 0.4296
vn 0.8046 -0.0816 -0.5882
vn -0.8948 -0.1185 0.4305
vn -0.0000 0.0500 0.9987
vn 0.8301 0.1555 0.5355
vn -0.7800 -0.0917 -0.6190
vn 0.7800 -0.0917 -0.6190
vn -0.7834 -0.0792 -0.6164
vn 0.9012 0.1070 -0.4199
vn -0.8519 0.0046 0.5237
vn -0.5785 -0.7888 0.2078
vn 0.8832 -0.1875 0.4299
vn -0.8832 -0.1875 0.4299
vn 0.9866 -0.1630 -0.0000
vn -0.9866 -0.1630 0.0002
vt 0.630928 0.015493
vt 0.628935 0.009848
vt 0.631871 0.012552
vt 0.629858 0.020902
vt 0.626800 0.023190
vt 0.625376 0.019266
vt 0.629123 0.023880
vt 0.628442 0.026746
vt 0.627257 0.033336
vt 0.622783 0.028535
vt 0.627839 0.029903
vt 0.626364 0.036876
vt 0.619423 0.039081
vt 0.620382 0.035495
vt 0.622754 0.045747
vt 0.618771 0.041110
vt 0.624246 0.041281
vt 0.628940 0.049649
vt 0.630026 0.056784
vt 0.624526 0.055884
vt 0.638497 0.048467
vt 0.644684 0.049043
vt 0.639619 0.051095
vt 0.640776 0.041306
vt 0.635452 0.042067
vt 0.638411 0.038849
vt 0.636597 0.035356
vt 0.641770 0.032622
vt 0.641256 0.035747
vt 0.637497 0.028887
vt 0.638303 0.025769
vt 0.640771 0.026129
vt 0.639222 0.022365
vt 0.645020 0.019580
vt 0.644194 0.023009
vt 0.641164 0.012228
vt 0.645555 0.015073
vt 0.641032 0.015821
vt 0.641908 0.006571
vt 0.633037 0.010307
vt 0.630232 0.006459
vt 0.640040 0.019280
vt 0.636821 0.032060
vt 0.625072 0.039623
vt 0.634794 0.043163
vt 0.632470 0.051474
vt 0.618525 0.008208
vt 0.620404 0.004406
vt 0.617686 0.012294
vt 0.626368 0.016479
vt 0.623761 0.025419
vt 0.615888 0.019463
vt 0.624548 0.022439
vt 0.621587 0.031846
vt 0.614238 0.025734
vt 0.611289 0.034083
vt 0.609021 0.043932
vt 0.610567 0.035017
vt 0.617987 0.040110
vt 0.637719 0.053160
vt 0.643796 0.046493
vt 0.604351 0.033993
vt 0.606186 0.040348
vt 0.602828 0.036019
vt 0.625735 0.041027
vt 0.617524 0.047396
vt 0.636143 0.038797
vt 0.611727 0.031302
vt 0.612765 0.028378
vt 0.642421 0.029580
vt 0.615108 0.022691
vt 0.616786 0.015762
vt 0.627526 0.013398
vt 0.630335 0.018267
vt 0.640408 0.009845
vt 0.644254 0.010025
vt 0.621815 0.001953
vt 0.641916 0.040787
vt 0.643203 0.026558
vt 0.640840 0.038809
vt 0.635549 0.058929
vt 0.638131 0.051536
s 1
usemtl lambert7
f 4/1/1 53/2/2 54/3/3
f 6/4/4 63/5/5 5/6/6
f 46/7/7 8/8/8 63/5/9
f 10/9/10 41/10/11 42/11/12
f 38/12/13 11/13/14 37/14/15
f 35/15/16 33/16/17 34/17/18
f 14/18/19 15/19/20 13/20/21
f 31/21/22 29/22/23 30/23/24
f 17/24/25 18/25/26 62/26/27
f 20/27/28 44/28/29 19/29/30
f 22/30/31 47/31/32 61/32/33
f 24/33/34 52/34/35 23/35/36
f 55/36/37 25/37/38 26/38/39
f 27/39/40 2/40/41 1/41/42
f 54/3/43 26/38/44 4/1/45
f 6/4/46 51/42/47 24/33/48
f 8/8/49 47/31/50 22/30/31
f 10/9/51 43/43/52 20/27/53
f 38/12/54 18/25/55 12/44/56
f 14/18/57 57/45/58 16/46/59
f 53/2/60 25/47/61 56/48/62
f 5/6/63 52/49/64 49/50/65
f 7/51/66 48/52/67 45/53/68
f 9/54/69 44/55/70 41/10/71
f 17/56/72 37/14/73 11/13/74
f 13/57/75 59/58/76 60/59/77
f 30/60/78 15/19/79 16/46/80
f 31/21/81 16/46/82 57/45/83
f 18/25/84 32/61/85 31/21/22
f 32/62/86 15/63/87 29/64/88
f 34/17/89 11/13/14 12/44/90
f 35/15/91 58/65/92 14/18/93
f 35/15/94 13/20/21 36/66/95
f 36/66/96 60/59/97 33/16/98
f 38/12/99 9/54/100 10/9/10
f 10/9/101 39/67/102 38/12/103
f 39/67/104 20/27/105 62/26/27
f 9/54/106 40/68/107 19/69/108
f 8/8/109 41/10/110 7/51/111
f 42/11/12 22/30/31 43/43/112
f 22/30/113 61/32/114 21/70/115
f 41/10/11 21/71/116 7/51/66
f 6/4/46 46/7/7 63/5/9
f 46/7/7 24/33/48 47/31/50
f 47/31/50 24/33/117 61/32/118
f 45/53/68 23/72/119 5/6/63
f 4/1/120 49/50/65 3/73/121
f 4/1/122 51/42/123 50/74/124
f 51/42/125 25/37/38 52/34/126
f 3/73/127 52/49/128 25/47/129
f 53/2/130 2/40/131 54/3/132
f 55/36/133 2/40/134 28/75/135
f 28/75/136 56/76/137 55/36/37
f 1/41/138 56/48/139 27/77/140
f 57/45/141 12/44/142 18/25/143
f 31/21/144 57/45/145 18/25/146
f 58/65/147 34/17/148 12/44/90
f 11/13/149 59/58/150 17/56/151
f 32/61/85 17/24/152 59/78/153
f 11/13/14 33/16/154 60/59/155
f 61/32/118 23/35/156 48/79/67
f 61/32/33 48/79/157 21/70/158
f 62/26/27 19/29/159 40/80/160
f 63/5/9 7/51/161 45/53/68
f 63/5/9 45/53/68 5/6/63
f 62/26/27 18/25/26 39/67/162
f 17/24/25 62/26/27 40/80/163
f 4/1/1 3/73/164 53/2/2
f 49/50/165 50/74/166 5/6/6
f 50/74/166 6/4/4 5/6/6
f 10/9/10 9/54/100 41/10/11
f 38/12/13 12/44/90 11/13/14
f 35/15/16 36/66/167 33/16/17
f 14/18/19 16/46/168 15/19/20
f 31/21/22 32/61/85 29/22/23
f 19/29/30 62/26/169 20/27/28
f 20/27/28 43/43/170 44/28/29
f 23/35/36 61/32/171 24/33/34
f 24/33/34 51/42/172 52/34/35
f 55/36/37 56/76/137 25/37/38
f 27/39/40 28/75/136 2/40/41
f 54/3/43 55/36/173 26/38/44
f 6/4/46 50/74/174 51/42/47
f 8/8/49 46/7/7 47/31/50
f 10/9/51 42/11/175 43/43/52
f 38/12/54 39/67/176 18/25/55
f 14/18/57 58/65/177 57/45/58
f 53/2/60 3/73/178 25/47/61
f 5/6/63 23/72/119 52/49/64
f 7/51/66 21/71/116 48/52/67
f 9/54/69 19/69/179 44/55/70
f 17/56/72 40/68/180 37/14/73
f 13/57/75 15/63/181 59/58/76
f 30/60/78 29/81/182 15/19/79
f 31/21/81 30/82/183 16/46/82
f 18/25/84 17/24/184 32/61/85
f 32/62/86 59/58/185 15/63/87
f 34/17/89 33/16/186 11/13/14
f 35/15/91 34/17/187 58/65/92
f 35/15/94 14/18/19 13/20/21
f 36/66/96 13/57/188 60/59/97
f 38/12/99 37/14/189 9/54/100
f 10/9/101 20/27/190 39/67/102
f 9/54/106 37/14/191 40/68/107
f 7/51/111 63/5/192 8/8/109
f 8/8/109 42/11/193 41/10/110
f 42/11/12 8/8/49 22/30/31
f 21/70/115 44/28/194 43/43/195
f 43/43/195 22/30/113 21/70/115
f 41/10/11 44/55/196 21/71/116
f 46/7/7 6/4/46 24/33/48
f 45/53/68 48/52/67 23/72/119
f 4/1/120 50/74/174 49/50/65
f 4/1/122 26/38/197 51/42/123
f 51/42/125 26/38/39 25/37/38
f 3/73/127 49/50/198 52/49/128
f 53/2/130 1/41/199 2/40/131
f 55/36/133 54/3/200 2/40/134
f 28/75/136 27/39/40 56/76/137
f 1/41/138 53/2/201 56/48/139
f 57/45/141 58/65/202 12/44/142
f 11/13/149 60/59/203 59/58/150
