# Blender 4.0.1
# www.blender.org
mtllib joystickMount.mtl
o d
v -0.000000 0.024309 -0.005048
v 0.000000 0.026077 -0.007240
v 0.000000 0.026029 -0.006901
v 0.000000 0.025908 -0.006503
v 0.000000 0.025743 -0.006112
v 0.000000 0.025526 -0.005729
v 0.000000 0.025229 -0.005363
v 0.000000 0.024776 -0.005092
v -0.000130 0.024309 -0.005048
v -0.000128 0.024779 -0.005091
v -0.000130 0.025241 -0.005356
v -0.000129 0.025537 -0.005732
v -0.000129 0.025753 -0.006122
v -0.000127 0.025911 -0.006507
v -0.000130 0.026036 -0.006890
v -0.000130 0.026082 -0.007274
v -0.000130 0.024309 -0.004953
v -0.000131 0.024804 -0.005006
v -0.000131 0.025294 -0.005299
v -0.000131 0.025609 -0.005685
v -0.000131 0.025834 -0.006082
v -0.000131 0.025998 -0.006475
v -0.000131 0.026119 -0.006872
v -0.000130 0.026177 -0.007274
v -0.000371 0.024309 -0.004953
v -0.000369 0.024801 -0.005006
v -0.000369 0.025291 -0.005296
v -0.000371 0.025604 -0.005683
v -0.000369 0.025831 -0.006077
v -0.000369 0.025998 -0.006473
v -0.000369 0.026120 -0.006875
v -0.000371 0.026177 -0.007274
v -0.000371 0.024309 -0.007274
v 0.000000 0.026029 -0.006901
v 0.000000 0.025908 -0.006503
v 0.000000 0.025743 -0.006112
v 0.000000 0.025526 -0.005729
v 0.000000 0.025229 -0.005363
v 0.000000 0.024776 -0.005092
v -0.000130 0.024309 -0.005048
v -0.000128 0.024779 -0.005091
v -0.000130 0.025241 -0.005356
v -0.000129 0.025537 -0.005732
v -0.000129 0.025753 -0.006122
v -0.000127 0.025911 -0.006507
v -0.000130 0.026036 -0.006890
v -0.000130 0.026082 -0.007274
v -0.000130 0.024309 -0.004953
v -0.000131 0.024804 -0.005006
v -0.000131 0.025294 -0.005299
v -0.000131 0.025609 -0.005685
v -0.000131 0.025834 -0.006082
v -0.000131 0.025998 -0.006475
v -0.000131 0.026119 -0.006872
v -0.000130 0.026177 -0.007274
v 0.000130 0.024309 -0.005048
v 0.000128 0.024779 -0.005091
v 0.000130 0.025241 -0.005356
v 0.000129 0.025537 -0.005732
v 0.000129 0.025753 -0.006122
v 0.000127 0.025911 -0.006507
v 0.000130 0.026036 -0.006890
v 0.000130 0.026082 -0.007274
v 0.000130 0.024309 -0.004953
v 0.000131 0.024804 -0.005006
v 0.000131 0.025294 -0.005299
v 0.000131 0.025609 -0.005685
v 0.000131 0.025834 -0.006082
v 0.000131 0.025998 -0.006475
v 0.000131 0.026119 -0.006872
v 0.000130 0.026177 -0.007274
v 0.000130 0.024309 -0.005048
v 0.000128 0.024779 -0.005091
v 0.000130 0.025241 -0.005356
v 0.000129 0.025537 -0.005732
v 0.000129 0.025753 -0.006122
v 0.000127 0.025911 -0.006507
v 0.000130 0.026036 -0.006890
v 0.000130 0.026082 -0.007274
v 0.000130 0.024309 -0.004953
v 0.000131 0.024804 -0.005006
v 0.000131 0.025294 -0.005299
v 0.000131 0.025609 -0.005685
v 0.000131 0.025834 -0.006082
v 0.000131 0.025998 -0.006475
v 0.000131 0.026119 -0.006872
v 0.000130 0.026177 -0.007274
v 0.000371 0.024309 -0.004953
v 0.000369 0.024801 -0.005006
v 0.000369 0.025291 -0.005296
v 0.000371 0.025604 -0.005683
v 0.000369 0.025831 -0.006077
v 0.000369 0.025998 -0.006473
v 0.000369 0.026120 -0.006875
v 0.000371 0.026177 -0.007274
v 0.000371 0.024309 -0.007274
v -0.000000 0.026029 -0.006901
v -0.000000 0.025908 -0.006503
v 0.000000 0.025743 -0.006112
v -0.000000 0.025526 -0.005729
v -0.000000 0.025229 -0.005363
v -0.000000 0.024776 -0.005092
v 0.000130 0.024309 -0.005048
v 0.000128 0.024779 -0.005091
v 0.000130 0.025241 -0.005356
v 0.000129 0.025537 -0.005732
v 0.000129 0.025753 -0.006122
v 0.000127 0.025911 -0.006507
v 0.000130 0.026036 -0.006890
v 0.000130 0.026082 -0.007274
v 0.000130 0.024309 -0.004953
v 0.000131 0.024804 -0.005006
v 0.000131 0.025294 -0.005299
v 0.000131 0.025609 -0.005685
v 0.000131 0.025834 -0.006082
v 0.000131 0.025998 -0.006475
v 0.000131 0.026119 -0.006872
v 0.000130 0.026177 -0.007274
v -0.000130 0.024309 -0.005048
v -0.000128 0.024779 -0.005091
v -0.000130 0.025241 -0.005356
v -0.000129 0.025537 -0.005732
v -0.000129 0.025753 -0.006122
v -0.000127 0.025911 -0.006507
v -0.000130 0.026036 -0.006890
v -0.000130 0.026082 -0.007274
v -0.000130 0.024309 -0.004953
v -0.000131 0.024804 -0.005006
v -0.000131 0.025294 -0.005299
v -0.000131 0.025609 -0.005685
v -0.000131 0.025834 -0.006082
v -0.000131 0.025998 -0.006475
v -0.000131 0.026119 -0.006872
v -0.000130 0.026177 -0.007274
vn 0.6164 0.2598 0.7433
vn 0.0247 0.6413 0.7669
vn 0.6479 0.4908 0.5825
vn 0.6377 0.4970 0.5885
vn -0.0174 0.8284 0.5599
vn 0.5875 0.6747 0.4468
vn 0.6098 0.6561 0.4445
vn -0.0095 0.8978 0.4404
vn 0.5922 0.7262 0.3492
vn 0.6071 0.7135 0.3498
vn -0.0100 0.9400 0.3409
vn 0.5828 0.7652 0.2737
vn -0.0193 0.9368 0.3493
vn 0.6329 0.7558 0.1676
vn 0.5727 0.7676 0.2878
vn 0.6324 0.7538 0.1786
vn -0.0169 0.9922 0.1232
vn 0.6871 0.7213 0.0872
vn 0.6042 0.0738 0.7934
vn 0.0036 0.3157 0.9489
vn 0.6350 0.2480 0.7316
vn 0.6226 0.2517 0.7410
vn 1.0000 -0.0034 0.0049
vn 0.6171 0.0692 0.7838
vn 0.6271 0.2513 0.7373
vn 0.9999 0.0134 0.0109
vn 0.9994 0.0132 0.0329
vn 0.6276 0.5062 0.5915
vn 0.9997 0.0194 0.0138
vn 0.9997 0.0163 0.0193
vn 0.6050 0.6607 0.4443
vn 0.9995 0.0269 0.0151
vn 0.9998 0.0169 0.0113
vn 0.6034 0.7174 0.3483
vn 0.9994 0.0330 0.0129
vn 0.9997 0.0207 0.0105
vn 0.9993 0.0359 0.0111
vn 0.6254 0.7626 0.1654
vn 0.9999 0.0109 0.0035
vn 0.9996 0.0281 0.0035
vn 0.7045 0.7035 0.0940
vn 1.0000 -0.0000 0.0036
vn -1.0000 0.0009 0.0015
vn -1.0000 0.0009 0.0018
vn -1.0000 0.0006 0.0029
vn -1.0000 0.0009 0.0017
vn -1.0000 0.0014 0.0002
vn -1.0000 0.0011 0.0003
vn -1.0000 0.0011 0.0004
vn -1.0000 0.0012 -0.0007
vn -1.0000 0.0012 -0.0004
vn -1.0000 0.0012 -0.0005
vn -1.0000 0.0010 0.0001
vn -1.0000 0.0010 -0.0008
vn -1.0000 0.0016 0.0024
vn -1.0000 0.0013 0.0028
vn -0.8901 0.0512 0.4529
vn -0.8654 0.1663 0.4727
vn 0.0924 0.6389 0.7637
vn 0.0447 0.8276 0.5595
vn 0.0267 0.8975 0.4403
vn 0.0244 0.9398 0.3409
vn 0.0150 0.9369 0.3493
vn 0.0143 0.9923 0.1232
vn -0.8653 0.1663 0.4728
vn 0.3238 0.1011 0.9407
vn 0.2913 0.3171 0.9025
vn 0.2891 0.3167 0.9034
vn -0.0009 0.6441 0.7649
vn -0.8680 0.1631 0.4690
vn 0.2839 0.6198 0.7317
vn -0.0071 0.8219 0.5695
vn 0.0011 0.6454 0.7639
vn 0.3054 0.7835 0.5411
vn 0.0003 0.8962 0.4437
vn -0.0127 0.8199 0.5723
vn 0.3310 0.8456 0.4187
vn 0.0011 0.9405 0.3397
vn -0.0042 0.8951 0.4459
vn 0.0009 0.9403 0.3402
vn 0.3264 0.9226 0.2056
vn -0.0010 0.9764 0.2161
vn 0.0003 0.9762 0.2169
vn 0.3152 0.9394 0.1347
vn -0.0000 0.9900 0.1414
vn 0.0368 0.3155 0.9482
vn 0.3443 0.0995 0.9336
vn 0.2949 0.6179 0.7288
vn 0.2762 0.3185 0.9068
vn 0.3073 0.7837 0.5398
vn 0.2838 0.6193 0.7321
vn 0.3290 0.8463 0.4190
vn 0.3122 0.7824 0.5388
vn 0.3306 0.8876 0.3208
vn 0.3394 0.8432 0.4169
vn 0.3278 0.8888 0.3202
vn 0.3394 0.9180 0.2053
vn 0.3164 0.9260 0.2058
vn 0.3290 0.9347 0.1349
vn -0.6164 0.2598 0.7433
vn -0.0924 0.6389 0.7637
vn 0.0031 0.3279 0.9447
vn -0.6377 0.4970 0.5885
vn -0.0447 0.8276 0.5595
vn -0.0933 0.6344 0.7674
vn -0.6098 0.6561 0.4445
vn -0.0267 0.8975 0.4403
vn -0.0774 0.8206 0.5662
vn -0.6071 0.7135 0.3498
vn -0.0244 0.9398 0.3409
vn -0.0520 0.8930 0.4470
vn -0.6329 0.7558 0.1676
vn -0.0150 0.9369 0.3493
vn -0.5727 0.7676 0.2878
vn -0.0143 0.9923 0.1232
vn -0.6324 0.7538 0.1786
vn -0.6871 0.7213 0.0872
vn -0.0368 0.3155 0.9482
vn -0.6042 0.0733 0.7934
vn -0.6350 0.2480 0.7316
vn -1.0000 -0.0034 0.0049
vn -0.6226 0.2517 0.7410
vn -0.6171 0.0692 0.7838
vn -0.9999 0.0134 0.0109
vn -0.6271 0.2512 0.7373
vn -0.9994 0.0132 0.0329
vn -0.9997 0.0194 0.0138
vn -0.6276 0.5062 0.5915
vn -0.9997 0.0163 0.0193
vn -0.9995 0.0269 0.0151
vn -0.6050 0.6607 0.4443
vn -0.9998 0.0169 0.0113
vn -0.9994 0.0330 0.0129
vn -0.6034 0.7173 0.3485
vn -0.9997 0.0207 0.0105
vn -0.9993 0.0359 0.0111
vn -0.6254 0.7605 0.1747
vn -0.5881 0.7606 0.2751
vn -0.9996 0.0281 0.0035
vn -0.7045 0.7035 0.0939
vn -0.6160 0.7703 0.1650
vn -0.0247 0.6413 0.7669
vn 0.0358 0.3275 0.9442
vn 0.0174 0.8284 0.5599
vn -0.0256 0.6373 0.7702
vn 0.0095 0.8978 0.4404
vn -0.0145 0.8230 0.5678
vn 0.0100 0.9400 0.3409
vn -0.0154 0.8941 0.4475
vn 0.0193 0.9368 0.3493
vn 0.0169 0.9922 0.1232
vn -0.0036 0.3157 0.9489
vn 1.0000 0.0006 0.0029
vn 1.0000 0.0009 0.0017
vn 1.0000 0.0009 0.0018
vn 1.0000 0.0011 0.0003
vn 1.0000 0.0009 0.0015
vn 1.0000 0.0011 0.0004
vn 1.0000 0.0012 -0.0004
vn 1.0000 0.0012 -0.0005
vn 1.0000 0.0010 -0.0008
vn 1.0000 0.0012 -0.0009
vn 1.0000 0.0013 0.0028
vn 1.0000 0.0010 0.0001
vn 1.0000 0.0016 0.0024
vn 1.0000 0.0013 0.0027
vn 0.8654 0.1662 0.4727
vn 0.8653 0.1663 0.4728
vn -0.3238 0.1011 0.9407
vn 0.8903 0.0512 0.4524
vn 0.0009 0.6441 0.7649
vn -0.2891 0.3167 0.9034
vn 0.8680 0.1631 0.4690
vn 0.0071 0.8219 0.5695
vn -0.2839 0.6198 0.7317
vn -0.0011 0.6454 0.7639
vn -0.0003 0.8962 0.4437
vn -0.3054 0.7835 0.5411
vn 0.0127 0.8199 0.5723
vn -0.0011 0.9405 0.3397
vn -0.3310 0.8456 0.4187
vn 0.0042 0.8951 0.4459
vn -0.0009 0.9403 0.3402
vn -0.3264 0.9226 0.2056
vn -0.3373 0.8852 0.3203
vn -0.3152 0.9394 0.1347
vn -0.0004 0.9762 0.2169
vn -0.3443 0.0995 0.9336
vn -0.2949 0.6179 0.7288
vn -0.2762 0.3185 0.9068
vn -0.3073 0.7837 0.5398
vn -0.2838 0.6193 0.7321
vn -0.3290 0.8463 0.4189
vn -0.3122 0.7824 0.5388
vn -0.3306 0.8876 0.3208
vn -0.3394 0.8432 0.4169
vn -0.3278 0.8888 0.3202
vn -0.3164 0.9260 0.2058
vn 0.8654 0.1663 0.4727
vn 0.8901 0.0512 0.4529
vn -0.8654 0.1662 0.4727
vn -1.0000 0.0013 0.0027
vn -0.0358 0.3275 0.9442
vn 0.0256 0.6373 0.7702
vn 0.0145 0.8230 0.5678
vn 0.0154 0.8941 0.4475
vn 0.0298 0.9783 0.2051
vn 0.0321 0.9730 0.2288
vn -0.0055 0.0932 0.9956
vn 0.9989 0.0154 0.0439
vn 0.6335 0.5051 0.5862
vn 0.6033 0.6616 0.4453
vn 0.5997 0.7190 0.3513
vn 0.5895 0.7570 0.2818
vn 0.5881 0.7606 0.2750
vn 0.6160 0.7684 0.1735
vn -0.0031 0.3279 0.9447
vn 0.0933 0.6344 0.7674
vn 0.0774 0.8206 0.5662
vn 0.0520 0.8930 0.4470
vn 0.0684 0.9765 0.2046
vn 0.0707 0.9710 0.2284
vn -0.8903 0.0512 0.4524
vn 0.2859 0.6204 0.7303
vn 0.3042 0.7834 0.5420
vn 0.3396 0.8448 0.4135
vn 0.3377 0.8857 0.3186
vn 0.3373 0.8852 0.3203
vn 0.3272 0.9223 0.2059
vn -0.0000 0.0932 0.9956
vn 0.2604 0.3197 0.9110
vn -0.6479 0.4908 0.5825
vn -0.5875 0.6747 0.4468
vn -0.5922 0.7262 0.3492
vn -0.5828 0.7652 0.2737
vn -0.0684 0.9765 0.2046
vn -0.0707 0.9710 0.2284
vn -0.9989 0.0154 0.0439
vn -0.6335 0.5051 0.5862
vn -0.6033 0.6616 0.4453
vn -0.5997 0.7195 0.3503
vn -0.5895 0.7589 0.2767
vn -0.9999 0.0109 0.0035
vn -1.0000 -0.0000 0.0036
vn -0.0298 0.9783 0.2051
vn -0.0321 0.9730 0.2288
vn 0.0055 0.0932 0.9956
vn -0.2913 0.3171 0.9025
vn -0.2859 0.6204 0.7303
vn -0.3042 0.7834 0.5420
vn -0.3396 0.8448 0.4135
vn -0.3377 0.8857 0.3186
vn 0.0010 0.9764 0.2161
vn -0.3272 0.9222 0.2059
vn -0.2604 0.3197 0.9110
vn -0.3394 0.9180 0.2053
vn -0.3290 0.9347 0.1349
vt 0.074256 0.047273
vt 0.073833 0.038180
vt 0.076029 0.038340
vt 0.073869 0.030394
vt 0.076044 0.030158
vt 0.073240 0.023071
vt 0.075376 0.022606
vt 0.072188 0.016060
vt 0.074281 0.015609
vt 0.072988 0.008876
vt 0.069215 0.003736
vt 0.071150 0.002586
vt 0.071250 0.054739
vt 0.072168 0.046700
vt 0.072662 0.055471
vt 0.077328 0.038417
vt 0.075659 0.047741
vt 0.077496 0.030075
vt 0.076880 0.022424
vt 0.075816 0.015342
vt 0.074385 0.008532
vt 0.072619 0.001953
vt 0.014975 0.058370
vt 0.046516 0.053003
vt 0.050426 0.058564
vt 0.041622 0.047901
vt 0.036076 0.043218
vt 0.029648 0.039031
vt 0.021986 0.035613
vt 0.004570 0.038029
vt 0.012395 0.034993
vt 0.010250 0.029968
vt 0.017211 0.024036
vt 0.018384 0.025898
vt 0.023700 0.019604
vt 0.025101 0.021283
vt 0.029577 0.015120
vt 0.031096 0.016691
vt 0.035074 0.010585
vt 0.036520 0.012166
vt 0.041733 0.007718
vt 0.044434 0.001953
vt 0.046376 0.003098
vt 0.003081 0.034260
vt 0.010783 0.031334
vt 0.021068 0.030468
vt 0.019091 0.026983
vt 0.028234 0.025804
vt 0.025974 0.022445
vt 0.034436 0.021097
vt 0.032040 0.017875
vt 0.040116 0.016443
vt 0.042711 0.008769
vt 0.045437 0.011697
vt 0.047641 0.004086
vt 0.050426 0.007052
vt 0.002689 0.032708
vt 0.009360 0.028000
vt 0.037521 0.013354
vt 0.060891 0.010135
vt 0.060503 0.019224
vt 0.058808 0.010727
vt 0.062698 0.019067
vt 0.060495 0.027003
vt 0.062668 0.027251
vt 0.059827 0.034327
vt 0.061962 0.034799
vt 0.058764 0.041340
vt 0.059556 0.048526
vt 0.060856 0.041793
vt 0.055763 0.053650
vt 0.057692 0.054809
vt 0.057786 0.002707
vt 0.059188 0.001953
vt 0.063999 0.018993
vt 0.062290 0.009654
vt 0.064121 0.027344
vt 0.063466 0.034986
vt 0.062391 0.042062
vt 0.060952 0.048873
vt 0.074256 0.047273
vt 0.073833 0.038180
vt 0.072168 0.046700
vt 0.076029 0.038340
vt 0.073869 0.030394
vt 0.073240 0.023071
vt 0.075376 0.022606
vt 0.072188 0.016060
vt 0.072988 0.008876
vt 0.074281 0.015609
vt 0.069215 0.003736
vt 0.071150 0.002586
vt 0.072661 0.055471
vt 0.077328 0.038417
vt 0.075659 0.047741
vt 0.077496 0.030075
vt 0.076880 0.022424
vt 0.075816 0.015342
vt 0.074385 0.008532
vt 0.014975 0.058370
vt 0.050426 0.058564
vt 0.046516 0.053003
vt 0.041622 0.047901
vt 0.036076 0.043218
vt 0.029648 0.039031
vt 0.021986 0.035613
vt 0.012395 0.034993
vt 0.010250 0.029968
vt 0.017211 0.024036
vt 0.009360 0.028000
vt 0.018384 0.025898
vt 0.023700 0.019604
vt 0.025101 0.021283
vt 0.029577 0.015120
vt 0.031096 0.016691
vt 0.035074 0.010585
vt 0.041733 0.007718
vt 0.036520 0.012166
vt 0.044434 0.001953
vt 0.046376 0.003098
vt 0.003081 0.034260
vt 0.004570 0.038029
vt 0.021068 0.030468
vt 0.019091 0.026983
vt 0.034437 0.021097
vt 0.025974 0.022445
vt 0.040116 0.016443
vt 0.032040 0.017875
vt 0.042712 0.008769
vt 0.037521 0.013354
vt 0.047641 0.004086
vt 0.045437 0.011697
vt 0.050426 0.007052
vt 0.002689 0.032708
vt 0.060891 0.010135
vt 0.060503 0.019224
vt 0.062698 0.019067
vt 0.060496 0.027003
vt 0.062668 0.027251
vt 0.059827 0.034327
vt 0.061962 0.034799
vt 0.058764 0.041340
vt 0.060856 0.041793
vt 0.059556 0.048526
vt 0.055763 0.053650
vt 0.057692 0.054809
vt 0.057786 0.002707
vt 0.058808 0.010727
vt 0.059188 0.001953
vt 0.063999 0.018993
vt 0.062290 0.009654
vt 0.064121 0.027344
vt 0.063466 0.034986
vt 0.062391 0.042062
vt 0.060952 0.048873
vt 0.059158 0.055449
vt 0.070808 0.009246
vt 0.069215 0.053920
vt 0.040350 0.006000
vt 0.001953 0.030643
vt 0.057377 0.048150
vt 0.055763 0.003554
vt 0.059158 0.055449
vt 0.070808 0.009246
vt 0.069215 0.053920
vt 0.072619 0.001953
vt 0.040350 0.006000
vt 0.057377 0.048150
vt 0.055763 0.003554
s 1
usemtl lambert7
f 10/1/1 7/2/2 11/3/3
f 11/3/4 6/4/5 12/5/6
f 12/5/7 5/6/8 13/7/9
f 13/7/10 4/8/11 14/9/12
f 4/8/13 15/10/14 14/9/15
f 15/10/16 2/11/17 16/12/18
f 9/13/19 8/14/20 10/1/21
f 10/1/22 17/15/23 9/13/24
f 10/1/25 19/16/26 18/17/27
f 11/3/28 20/18/29 19/16/30
f 12/5/31 21/19/32 20/18/33
f 13/7/34 22/20/35 21/19/36
f 22/20/37 15/10/38 23/21/39
f 23/21/40 16/12/41 24/22/42
f 33/23/43 31/24/44 32/25/45
f 31/24/46 33/23/47 30/26/48
f 30/26/49 33/23/50 29/27/51
f 29/27/52 33/23/53 28/28/54
f 28/28/54 33/23/55 27/29/56
f 33/23/55 25/30/57 26/31/58
f 41/32/1 38/33/59 42/34/3
f 42/34/4 37/35/60 43/36/6
f 43/36/7 36/37/61 44/38/9
f 44/38/10 35/39/62 45/40/12
f 35/39/63 46/41/14 45/40/15
f 46/41/16 2/42/64 47/43/18
f 26/31/65 48/44/66 49/45/67
f 49/45/68 27/46/69 26/31/70
f 50/47/71 28/48/72 27/46/73
f 51/49/74 29/50/75 28/48/76
f 52/51/77 30/52/78 29/50/79
f 30/52/80 54/53/81 31/54/82
f 31/54/83 55/55/84 32/56/85
f 40/57/19 39/58/86 41/32/21
f 41/32/22 48/44/87 40/57/24
f 41/32/25 50/47/88 49/45/89
f 42/34/28 51/49/90 50/47/91
f 43/36/31 52/51/92 51/49/93
f 44/38/34 53/59/94 52/51/95
f 53/59/96 46/41/38 54/53/97
f 54/53/98 47/43/41 55/55/99
f 57/60/100 38/61/101 39/62/102
f 58/63/103 37/64/104 38/61/105
f 59/65/106 36/66/107 37/64/108
f 60/67/109 35/68/110 36/66/111
f 62/69/112 35/68/113 61/70/114
f 2/71/115 62/69/116 63/72/117
f 39/62/118 56/73/119 57/60/120
f 64/74/121 57/60/122 56/73/123
f 66/75/124 57/60/125 65/76/126
f 67/77/127 58/63/128 66/75/129
f 68/78/130 59/65/131 67/77/132
f 69/79/133 60/67/134 68/78/135
f 69/79/136 62/69/137 61/70/138
f 70/80/139 63/72/140 62/69/141
f 73/81/100 7/82/142 8/83/143
f 74/84/103 6/85/144 7/82/145
f 75/5/106 5/86/146 6/85/147
f 76/87/109 4/88/148 5/86/149
f 78/89/112 4/88/150 77/90/114
f 2/91/151 78/89/116 79/92/117
f 8/83/152 72/13/119 73/81/120
f 80/93/121 73/81/122 72/13/123
f 82/94/124 73/81/125 81/95/126
f 83/96/127 74/84/128 82/94/129
f 84/97/130 75/5/131 83/96/132
f 85/98/133 76/87/134 84/97/135
f 85/98/136 78/89/137 77/90/138
f 86/99/139 79/92/140 78/89/141
f 96/100/153 95/101/153 94/102/154
f 94/102/155 93/103/156 96/100/157
f 93/103/158 92/104/159 96/100/158
f 92/104/160 91/105/161 96/100/162
f 91/105/161 90/106/163 96/100/164
f 96/100/165 90/106/166 89/107/167
f 104/108/100 101/109/101 102/110/102
f 105/111/103 100/112/104 101/109/105
f 106/113/106 99/114/107 100/112/108
f 107/115/109 98/116/110 99/114/111
f 109/117/112 98/116/113 108/118/114
f 2/119/115 109/117/116 110/120/117
f 89/107/168 111/121/169 88/122/170
f 90/123/171 112/45/172 89/107/173
f 91/48/174 113/124/175 90/123/176
f 92/125/177 114/126/178 91/48/179
f 93/127/180 115/128/181 92/125/182
f 93/127/183 117/129/184 116/130/185
f 118/131/186 94/132/187 95/133/85
f 102/110/118 103/134/119 104/108/120
f 111/121/188 104/108/122 103/134/123
f 113/124/189 104/108/125 112/45/190
f 114/126/191 105/111/128 113/124/192
f 115/128/193 106/113/131 114/126/194
f 116/130/195 107/115/134 115/128/196
f 116/130/197 109/117/137 108/118/138
f 117/129/198 110/120/140 109/117/141
f 120/135/1 101/136/59 121/137/3
f 121/137/4 100/138/60 122/139/6
f 122/139/7 99/140/61 123/141/9
f 123/141/10 98/142/62 124/143/12
f 98/142/63 125/144/14 124/143/15
f 125/144/16 2/145/64 126/146/18
f 119/147/19 102/148/86 120/135/21
f 120/135/22 127/149/23 119/147/24
f 120/135/25 129/150/26 128/151/27
f 121/137/28 130/152/29 129/150/30
f 122/139/31 131/153/32 130/152/33
f 123/141/34 132/154/35 131/153/36
f 132/154/37 125/144/38 133/155/39
f 133/155/40 126/146/41 134/156/42
f 96/100/165 89/107/199 88/122/200
f 33/23/55 26/31/201 27/29/202
f 10/1/1 8/14/203 7/2/2
f 11/3/4 7/2/204 6/4/5
f 12/5/7 6/4/205 5/6/8
f 13/7/10 5/6/206 4/8/11
f 4/8/13 3/157/207 15/10/14
f 15/10/16 3/157/208 2/11/17
f 9/13/19 1/158/209 8/14/20
f 10/1/22 18/17/210 17/15/23
f 10/1/25 11/3/211 19/16/26
f 11/3/28 12/5/212 20/18/29
f 12/5/31 13/7/213 21/19/32
f 13/7/34 14/9/214 22/20/35
f 22/20/37 14/9/215 15/10/38
f 23/21/40 15/10/216 16/12/41
f 41/32/1 39/58/217 38/33/59
f 42/34/4 38/33/218 37/35/60
f 43/36/7 37/35/219 36/37/61
f 44/38/10 36/37/220 35/39/62
f 35/39/63 34/159/221 46/41/14
f 46/41/16 34/159/222 2/42/64
f 26/31/65 25/30/223 48/44/66
f 49/45/68 50/47/224 27/46/69
f 50/47/71 51/49/225 28/48/72
f 51/49/74 52/51/226 29/50/75
f 52/51/77 53/59/227 30/52/78
f 30/52/80 53/59/228 54/53/81
f 31/54/83 54/53/229 55/55/84
f 40/57/19 1/160/230 39/58/86
f 41/32/22 49/45/231 48/44/87
f 41/32/25 42/34/211 50/47/88
f 42/34/28 43/36/212 51/49/90
f 43/36/31 44/38/213 52/51/92
f 44/38/34 45/40/214 53/59/94
f 53/59/96 45/40/215 46/41/38
f 54/53/98 46/41/216 47/43/41
f 57/60/100 58/63/232 38/61/101
f 58/63/103 59/65/233 37/64/104
f 59/65/106 60/67/234 36/66/107
f 60/67/109 61/70/235 35/68/110
f 62/69/112 34/161/236 35/68/113
f 2/71/115 34/161/237 62/69/116
f 39/62/118 1/162/230 56/73/119
f 64/74/121 65/76/238 57/60/122
f 66/75/124 58/63/239 57/60/125
f 67/77/127 59/65/240 58/63/128
f 68/78/130 60/67/241 59/65/131
f 69/79/133 61/70/242 60/67/134
f 69/79/136 70/80/243 62/69/137
f 70/80/139 71/163/244 63/72/140
f 73/81/100 74/84/232 7/82/142
f 74/84/103 75/5/233 6/85/144
f 75/5/106 76/87/234 5/86/146
f 76/87/109 77/90/235 4/88/148
f 78/89/112 3/164/245 4/88/150
f 2/91/151 3/164/246 78/89/116
f 8/83/152 1/165/247 72/13/119
f 80/93/121 81/95/238 73/81/122
f 82/94/124 74/84/239 73/81/125
f 83/96/127 75/5/240 74/84/128
f 84/97/130 76/87/241 75/5/131
f 85/98/133 77/90/242 76/87/134
f 85/98/136 86/99/243 78/89/137
f 86/99/139 87/166/244 79/92/140
f 104/108/100 105/111/232 101/109/101
f 105/111/103 106/113/233 100/112/104
f 106/113/106 107/115/234 99/114/107
f 107/115/109 108/118/235 98/116/110
f 109/117/112 97/167/236 98/116/113
f 2/119/115 97/167/237 109/117/116
f 89/107/168 112/45/248 111/121/169
f 90/123/171 113/124/249 112/45/172
f 91/48/174 114/126/250 113/124/175
f 92/125/177 115/128/251 114/126/178
f 93/127/180 116/130/252 115/128/181
f 93/127/183 94/132/253 117/129/184
f 118/131/186 117/129/254 94/132/187
f 102/110/118 1/160/230 103/134/119
f 111/121/188 112/45/255 104/108/122
f 113/124/189 105/111/239 104/108/125
f 114/126/191 106/113/240 105/111/128
f 115/128/193 107/115/241 106/113/131
f 116/130/195 108/118/242 107/115/134
f 116/130/197 117/129/256 109/117/137
f 117/129/198 118/131/257 110/120/140
f 120/135/1 102/148/217 101/136/59
f 121/137/4 101/136/218 100/138/60
f 122/139/7 100/138/219 99/140/61
f 123/141/10 99/140/220 98/142/62
f 98/142/63 97/168/221 125/144/14
f 125/144/16 97/168/222 2/145/64
f 119/147/19 1/169/230 102/148/86
f 120/135/22 128/151/210 127/149/23
f 120/135/25 121/137/211 129/150/26
f 121/137/28 122/139/212 130/152/29
f 122/139/31 123/141/213 131/153/32
f 123/141/34 124/143/214 132/154/35
f 132/154/37 124/143/215 125/144/38
f 133/155/40 125/144/216 126/146/41
