# Blender 4.0.1
# www.blender.org
mtllib cube2.mtl
o Cube.001
v 1.000000 1.000000 -1.000000
v 1.000000 -1.000000 -1.000000
v 1.000000 1.000000 1.000000
v 1.000000 -1.000000 1.000000
v -1.000000 1.000000 -1.000000
v -1.000000 -1.000000 -1.000000
v -1.000000 1.000000 1.000000
v -1.000000 -1.000000 1.000000
vn -0.0000 1.0000 -0.0000
vn -0.0000 -0.0000 1.0000
vn -1.0000 -0.0000 -0.0000
vn -0.0000 -1.0000 -0.0000
vn 1.0000 -0.0000 -0.0000
vn -0.0000 -0.0000 -1.0000
vt 0.318783 0.082093
vt 0.064693 0.337178
vt 0.064030 0.082093
vt 0.874272 0.993413
vt 0.547602 0.666743
vt 0.874272 0.666743
vt 0.859630 0.605724
vt 0.589589 0.335683
vt 0.859630 0.335683
vt 0.855702 0.060313
vt 0.616954 0.299062
vt 0.616954 0.060313
vt 0.338896 0.981474
vt 0.004854 0.647432
vt 0.338896 0.647432
vt 0.061851 0.627602
vt 0.348305 0.341148
vt 0.061851 0.341148
vt 0.318783 0.336846
vt 0.547602 0.993413
vt 0.589589 0.605724
vt 0.855702 0.299062
vt 0.004854 0.981474
vt 0.348305 0.627602
s 0
usemtl Material.001
f 5/1/1 3/2/1 1/3/1
f 3/4/2 8/5/2 4/6/2
f 7/7/3 6/8/3 8/9/3
f 2/10/4 8/11/4 6/12/4
f 1/13/5 4/14/5 2/15/5
f 5/16/6 2/17/6 6/18/6
f 5/1/1 7/19/1 3/2/1
f 3/4/2 7/20/2 8/5/2
f 7/7/3 5/21/3 6/8/3
f 2/10/4 4/22/4 8/11/4
f 1/13/5 3/23/5 4/14/5
f 5/16/6 1/24/6 2/17/6
